<?xml version="1.0" encoding="iso-8859-1"?>
<!-- Generator: Adobe Illustrator 16.0.0, SVG Export Plug-In . SVG Version: 6.00 Build 0)  -->
<!DOCTYPE svg PUBLIC "-//W3C//DTD SVG 1.1//EN" "http://www.w3.org/Graphics/SVG/1.1/DTD/svg11.dtd">
<svg version="1.1" id="Capa_1" xmlns="http://www.w3.org/2000/svg" xmlns:xlink="http://www.w3.org/1999/xlink" x="0px" y="0px"
	 width="103.537px" height="103.537px" viewBox="0 0 103.537 103.537" style="enable-background:new 0 0 103.537 103.537;"
	 xml:space="preserve">
<g>
	<g>
		<path d="M82.095,4.695L73.617,26.8H31.449L21.278,4.3c-1.664-3.678-5.993-5.312-9.671-3.648c-3.678,1.664-5.311,5.993-3.649,9.671
			l40.196,88.917c1.186,2.622,3.795,4.298,6.661,4.298c0.069,0,0.144,0,0.214-0.003c2.947-0.085,5.555-1.935,6.608-4.687
			L95.742,9.93c1.446-3.77-0.438-7.995-4.208-9.44C87.774-0.957,83.54,0.924,82.095,4.695z M54.261,77.265L38.056,41.417h29.953
			L54.261,77.265z"/>
	</g>
</g>
<g>
</g>
<g>
</g>
<g>
</g>
<g>
</g>
<g>
</g>
<g>
</g>
<g>
</g>
<g>
</g>
<g>
</g>
<g>
</g>
<g>
</g>
<g>
</g>
<g>
</g>
<g>
</g>
<g>
</g>
</svg>
