<?xml version="1.0" encoding="iso-8859-1"?>
<!-- Generator: Adobe Illustrator 16.0.0, SVG Export Plug-In . SVG Version: 6.00 Build 0)  -->
<!DOCTYPE svg PUBLIC "-//W3C//DTD SVG 1.1//EN" "http://www.w3.org/Graphics/SVG/1.1/DTD/svg11.dtd">
<svg version="1.1" id="Capa_1" xmlns="http://www.w3.org/2000/svg" xmlns:xlink="http://www.w3.org/1999/xlink" x="0px" y="0px"
	 width="121.506px" height="121.507px" viewBox="0 0 121.506 121.507" style="enable-background:new 0 0 121.506 121.507;"
	 xml:space="preserve">
<g>
	<g>
		<path d="M10.55,84.622c1.221,2.702,3.881,4.3,6.663,4.3c1.006,0,2.029-0.209,3.003-0.649l88.917-40.196
			c2.689-1.215,4.383-3.924,4.297-6.872c-0.085-2.948-1.936-5.554-4.688-6.609L19.824,0.489c-3.776-1.452-7.995,0.438-9.44,4.207
			c-1.447,3.769,0.438,7.995,4.207,9.44L87.161,41.97L14.199,74.953C10.52,76.615,8.886,80.944,10.55,84.622z"/>
		<path d="M112.791,70.393c-1.654-3.681-5.98-5.319-9.664-3.668L12.384,107.53c-3.681,1.656-5.325,5.981-3.668,9.664
			c1.218,2.709,3.883,4.312,6.67,4.312c1.001,0,2.02-0.207,2.994-0.646l90.745-40.806C112.803,78.401,114.448,74.074,112.791,70.393
			z"/>
	</g>
</g>
<g>
</g>
<g>
</g>
<g>
</g>
<g>
</g>
<g>
</g>
<g>
</g>
<g>
</g>
<g>
</g>
<g>
</g>
<g>
</g>
<g>
</g>
<g>
</g>
<g>
</g>
<g>
</g>
<g>
</g>
</svg>
