<?xml version="1.0" encoding="iso-8859-1"?>
<!-- Generator: Adobe Illustrator 16.0.0, SVG Export Plug-In . SVG Version: 6.00 Build 0)  -->
<!DOCTYPE svg PUBLIC "-//W3C//DTD SVG 1.1//EN" "http://www.w3.org/Graphics/SVG/1.1/DTD/svg11.dtd">
<svg version="1.1" id="Capa_1" xmlns="http://www.w3.org/2000/svg" xmlns:xlink="http://www.w3.org/1999/xlink" x="0px" y="0px"
	 width="121.805px" height="121.805px" viewBox="0 0 121.805 121.805" style="enable-background:new 0 0 121.805 121.805;"
	 xml:space="preserve">
<g>
	<g>
		<path d="M7.308,102.316h107.188c4.037,0,7.309-3.271,7.309-7.309c0-4.039-3.271-7.31-7.309-7.31H7.308
			C3.271,87.698,0,90.969,0,95.008C0,99.045,3.271,102.316,7.308,102.316z"/>
		<path d="M7.308,68.211h107.188c4.037,0,7.309-3.271,7.309-7.309c0-4.036-3.271-7.308-7.309-7.308H7.308
			C3.271,53.594,0,56.865,0,60.902C-0.001,64.939,3.271,68.211,7.308,68.211z"/>
		<path d="M7.308,34.105h107.188c4.037,0,7.309-3.272,7.309-7.309c0-4.037-3.271-7.308-7.309-7.308H7.308
			C3.271,19.488,0,22.759,0,26.796C0,30.833,3.271,34.105,7.308,34.105z"/>
	</g>
</g>
<g>
</g>
<g>
</g>
<g>
</g>
<g>
</g>
<g>
</g>
<g>
</g>
<g>
</g>
<g>
</g>
<g>
</g>
<g>
</g>
<g>
</g>
<g>
</g>
<g>
</g>
<g>
</g>
<g>
</g>
</svg>
