<?xml version="1.0" encoding="iso-8859-1"?>
<!-- Generator: Adobe Illustrator 16.0.0, SVG Export Plug-In . SVG Version: 6.00 Build 0)  -->
<!DOCTYPE svg PUBLIC "-//W3C//DTD SVG 1.1//EN" "http://www.w3.org/Graphics/SVG/1.1/DTD/svg11.dtd">
<svg version="1.1" id="Capa_1" xmlns="http://www.w3.org/2000/svg" xmlns:xlink="http://www.w3.org/1999/xlink" x="0px" y="0px"
	 width="112.061px" height="112.061px" viewBox="0 0 112.061 112.061" style="enable-background:new 0 0 112.061 112.061;"
	 xml:space="preserve">
<g>
	<g>
		<path d="M42.226,14.617h56.436c4.037,0,7.309-3.271,7.309-7.308C105.971,3.272,102.7,0,98.662,0H42.226
			C21.965,0,6.091,15.516,6.091,35.324v7.308c0,20.821,16.21,37.76,36.135,37.76h56.436c4.037,0,7.309-3.272,7.309-7.31
			c0-4.036-3.271-7.308-7.309-7.308H42.226c-11.664,0-21.518-10.6-21.518-23.144v-7.308C20.708,23.518,29.96,14.617,42.226,14.617z"
			/>
		<path d="M13.399,112.061h85.262c4.036,0,7.31-3.271,7.31-7.31c0-4.036-3.271-7.309-7.31-7.309H13.399
			c-4.037,0-7.309,3.272-7.309,7.309C6.091,108.789,9.363,112.061,13.399,112.061z"/>
	</g>
</g>
<g>
</g>
<g>
</g>
<g>
</g>
<g>
</g>
<g>
</g>
<g>
</g>
<g>
</g>
<g>
</g>
<g>
</g>
<g>
</g>
<g>
</g>
<g>
</g>
<g>
</g>
<g>
</g>
<g>
</g>
</svg>
