<?xml version="1.0" encoding="UTF-8" standalone="no"?>
<!-- Generator: Adobe Illustrator 16.0.0, SVG Export Plug-In . SVG Version: 6.00 Build 0)  -->

<svg
   xmlns:dc="http://purl.org/dc/elements/1.1/"
   xmlns:cc="http://creativecommons.org/ns#"
   xmlns:rdf="http://www.w3.org/1999/02/22-rdf-syntax-ns#"
   xmlns:svg="http://www.w3.org/2000/svg"
   xmlns="http://www.w3.org/2000/svg"
   xmlns:sodipodi="http://sodipodi.sourceforge.net/DTD/sodipodi-0.dtd"
   xmlns:inkscape="http://www.inkscape.org/namespaces/inkscape"
   version="1.1"
   id="Capa_1"
   x="0px"
   y="0px"
   width="121.805px"
   height="121.804px"
   viewBox="0 0 121.805 121.804"
   style="enable-background:new 0 0 121.805 121.804;"
   xml:space="preserve"
   inkscape:version="0.91 r13725"
   sodipodi:docname="Ints.svg"><metadata
     id="metadata43"><rdf:RDF><cc:Work
         rdf:about=""><dc:format>image/svg+xml</dc:format><dc:type
           rdf:resource="http://purl.org/dc/dcmitype/StillImage" /></cc:Work></rdf:RDF></metadata><defs
     id="defs41" /><sodipodi:namedview
     pagecolor="#ffffff"
     bordercolor="#666666"
     borderopacity="1"
     objecttolerance="10"
     gridtolerance="10"
     guidetolerance="10"
     inkscape:pageopacity="0"
     inkscape:pageshadow="2"
     inkscape:window-width="1920"
     inkscape:window-height="1056"
     id="namedview39"
     showgrid="false"
     inkscape:zoom="5.4801878"
     inkscape:cx="25.337255"
     inkscape:cy="49.518847"
     inkscape:window-x="0"
     inkscape:window-y="24"
     inkscape:window-maximized="1"
     inkscape:current-layer="Capa_1" /><path
     inkscape:connector-curvature="0"
     style="font-style:normal;font-weight:normal;font-size:20px;font-family:'DejaVu Sans';fill:#000000;fill-opacity:1;stroke:none;stroke-width:1px;stroke-linecap:butt;stroke-linejoin:miter;stroke-opacity:1"
     d="m 121.68383,85.533462 -3.72698,27.912828 -64.231983,0 0,-2.88485 51.245843,-97.694846 -23.701198,0 c -7.065736,9.9e-5 -11.70504,1.689422 -13.917908,5.067973 -2.212897,3.378716 -3.668729,8.810535 -4.367525,16.295458 l -2.271138,0 1.688793,-26.5093705 58.466806,0 -53.109285,101.2813955 33.775655,0 c 4.5422,0 8.04592,-1.46841 10.51122,-4.40523 2.46518,-2.93682 4.95953,-9.291246 7.48304,-19.063358 l 2.15466,0 z m -6.46398,-72.666868 -7.2792,0 -50.547026,96.135456 7.395699,0 50.430527,-96.135456 z"
     id="text2157"
     inkscape:transform-center-x="-62.696954"
     inkscape:transform-center-y="156.09476" /><g
     transform="matrix(0.65426112,0,0,0.65426112,-14.436194,20.773424)"
     id="g3"><g
       id="g5"><path
         d="m 66.391,29.233 22.105,0 c 4.037,0 7.309,-3.271 7.309,-7.308 0,-4.037 -3.271,-7.308 -7.309,-7.308 l -22.105,0 C 41.913,14.617 22,32.345 22,54.135 l 0,6.767 0,1.896 c 0,23.23 21.16,44.39 44.391,44.39 l 22.105,0 c 4.037,0 7.309,-3.271 7.309,-7.308 0,-4.037 -3.271,-7.309 -7.309,-7.309 l -22.105,0 C 53.183,92.571 40.198,81.173 37.248,68.21 l 50.016,0 c 4.037,0 7.31,-3.271 7.31,-7.309 0,-4.036 -3.272,-7.308 -7.31,-7.308 l -50.613,0 c 0.366,-15.057 15.594,-24.36 29.74,-24.36 z"
         id="path7"
         inkscape:connector-curvature="0"
         sodipodi:nodetypes="sssssscsssssscssscs" /></g></g></svg>