<?xml version="1.0" encoding="UTF-8" standalone="no"?>
<!-- Generator: Adobe Illustrator 16.0.0, SVG Export Plug-In . SVG Version: 6.00 Build 0)  -->

<svg
   xmlns:dc="http://purl.org/dc/elements/1.1/"
   xmlns:cc="http://creativecommons.org/ns#"
   xmlns:rdf="http://www.w3.org/1999/02/22-rdf-syntax-ns#"
   xmlns:svg="http://www.w3.org/2000/svg"
   xmlns="http://www.w3.org/2000/svg"
   xmlns:sodipodi="http://sodipodi.sourceforge.net/DTD/sodipodi-0.dtd"
   xmlns:inkscape="http://www.inkscape.org/namespaces/inkscape"
   version="1.1"
   id="Capa_1"
   x="0px"
   y="0px"
   width="121.805px"
   height="121.804px"
   viewBox="0 0 121.805 121.804"
   style="enable-background:new 0 0 121.805 121.804;"
   xml:space="preserve"
   inkscape:version="0.91 r13725"
   sodipodi:docname="Ints.svg"><metadata
     id="metadata43"><rdf:RDF><cc:Work
         rdf:about=""><dc:format>image/svg+xml</dc:format><dc:type
           rdf:resource="http://purl.org/dc/dcmitype/StillImage" /></cc:Work></rdf:RDF></metadata><defs
     id="defs41" /><sodipodi:namedview
     pagecolor="#ffffff"
     bordercolor="#666666"
     borderopacity="1"
     objecttolerance="10"
     gridtolerance="10"
     guidetolerance="10"
     inkscape:pageopacity="0"
     inkscape:pageshadow="2"
     inkscape:window-width="1920"
     inkscape:window-height="1056"
     id="namedview39"
     showgrid="false"
     inkscape:zoom="5.4801878"
     inkscape:cx="0.15563622"
     inkscape:cy="49.518847"
     inkscape:window-x="0"
     inkscape:window-y="24"
     inkscape:window-maximized="1"
     inkscape:current-layer="Capa_1" /><path
     inkscape:connector-curvature="0"
     style="font-style:normal;font-weight:normal;font-size:20px;font-family:'DejaVu Sans';fill:#000000;fill-opacity:1;stroke:none;stroke-width:1px;stroke-linecap:butt;stroke-linejoin:miter;stroke-opacity:1"
     d="m 103.80123,89.247026 -4.877807,31.863224 -84.065836,0 0,-3.29313 67.069771,-111.5212586 -31.019763,0 c -9.247527,1.13e-4 -15.319377,1.9285202 -18.215544,5.7852276 -2.896206,3.856894 -4.801576,10.05746 -5.71615,18.601699 l -2.97243,0 2.210266,-30.26115346 76.520453,0 -69.508612,115.61539546 44.205058,0 c 5.944761,0 10.530376,-1.67623 13.756923,-5.02868 3.226389,-3.35246 6.490954,-10.6062 9.793681,-21.761324 l 2.81999,0 z m -8.459955,-82.9511646 -9.526905,0 -66.15517,109.7411686 9.679377,0 L 95.341275,6.2958614 Z"
     id="text2157"
     inkscape:transform-center-x="-82.056809"
     inkscape:transform-center-y="178.18632" /></svg>