<?xml version="1.0" encoding="UTF-8" standalone="no"?>
<!-- Generator: Adobe Illustrator 16.0.0, SVG Export Plug-In . SVG Version: 6.00 Build 0)  -->

<svg
   xmlns:dc="http://purl.org/dc/elements/1.1/"
   xmlns:cc="http://creativecommons.org/ns#"
   xmlns:rdf="http://www.w3.org/1999/02/22-rdf-syntax-ns#"
   xmlns:svg="http://www.w3.org/2000/svg"
   xmlns="http://www.w3.org/2000/svg"
   xmlns:sodipodi="http://sodipodi.sourceforge.net/DTD/sodipodi-0.dtd"
   xmlns:inkscape="http://www.inkscape.org/namespaces/inkscape"
   version="1.1"
   id="Capa_1"
   x="0px"
   y="0px"
   width="121.805px"
   height="121.804px"
   viewBox="0 0 121.805 121.804"
   style="enable-background:new 0 0 121.805 121.804;"
   xml:space="preserve"
   inkscape:version="0.91 r13725"
   sodipodi:docname="Declaration.svg"><metadata
     id="metadata43"><rdf:RDF><cc:Work
         rdf:about=""><dc:format>image/svg+xml</dc:format><dc:type
           rdf:resource="http://purl.org/dc/dcmitype/StillImage" /></cc:Work></rdf:RDF></metadata><defs
     id="defs41" /><sodipodi:namedview
     pagecolor="#ffffff"
     bordercolor="#666666"
     borderopacity="1"
     objecttolerance="10"
     gridtolerance="10"
     guidetolerance="10"
     inkscape:pageopacity="0"
     inkscape:pageshadow="2"
     inkscape:window-width="1920"
     inkscape:window-height="1056"
     id="namedview39"
     showgrid="false"
     inkscape:zoom="5.4801878"
     inkscape:cx="53.712195"
     inkscape:cy="49.518847"
     inkscape:window-x="0"
     inkscape:window-y="24"
     inkscape:window-maximized="1"
     inkscape:current-layer="Capa_1" /><g
     id="g3"><g
       id="g5"><path
         d="m 66.391,29.233 22.105,0 c 4.037,0 7.309,-3.271 7.309,-7.308 0,-4.037 -3.271,-7.308 -7.309,-7.308 l -22.105,0 C 41.913,14.617 22,32.345 22,54.135 l 0,6.767 0,1.896 c 0,23.23 21.16,44.39 44.391,44.39 l 22.105,0 c 4.037,0 7.309,-3.271 7.309,-7.308 0,-4.037 -3.271,-7.309 -7.309,-7.309 l -22.105,0 C 53.183,92.571 40.198,81.173 37.248,68.21 l 50.016,0 c 4.037,0 7.31,-3.271 7.31,-7.309 0,-4.036 -3.272,-7.308 -7.31,-7.308 l -50.613,0 c 0.366,-15.057 15.594,-24.36 29.74,-24.36 z"
         id="path7"
         inkscape:connector-curvature="0"
         sodipodi:nodetypes="sssssscsssssscssscs" /></g></g><g
     id="g9" /><g
     id="g11" /><g
     id="g13" /><g
     id="g15" /><g
     id="g17" /><g
     id="g19" /><g
     id="g21" /><g
     id="g23" /><g
     id="g25" /><g
     id="g27" /><g
     id="g29" /><g
     id="g31" /><g
     id="g33" /><g
     id="g35" /><g
     id="g37" /></svg>