<?xml version="1.0" encoding="iso-8859-1"?>
<!-- Generator: Adobe Illustrator 16.0.0, SVG Export Plug-In . SVG Version: 6.00 Build 0)  -->
<!DOCTYPE svg PUBLIC "-//W3C//DTD SVG 1.1//EN" "http://www.w3.org/Graphics/SVG/1.1/DTD/svg11.dtd">
<svg version="1.1" id="Capa_1" xmlns="http://www.w3.org/2000/svg" xmlns:xlink="http://www.w3.org/1999/xlink" x="0px" y="0px"
	 width="121.507px" height="121.507px" viewBox="0 0 121.507 121.507" style="enable-background:new 0 0 121.507 121.507;"
	 xml:space="preserve">
<g>
	<g>
		<path d="M12.371,48.077l88.918,40.196c0.975,0.44,1.997,0.649,3.004,0.649c2.784,0,5.442-1.598,6.663-4.3
			c1.664-3.679,0.029-8.007-3.65-9.671L34.345,41.97l72.569-27.835c3.769-1.444,5.65-5.671,4.207-9.439
			c-1.446-3.767-5.661-5.657-9.44-4.207L12.763,34.593c-2.752,1.056-4.604,3.662-4.689,6.609
			C7.989,44.151,9.681,46.862,12.371,48.077z"/>
		<path d="M12.383,80.057l90.745,40.806c0.973,0.436,1.99,0.645,2.994,0.645c2.789,0,5.452-1.604,6.67-4.312
			c1.656-3.682,0.013-8.008-3.668-9.664L18.378,66.724c-3.683-1.65-8.007-0.013-9.664,3.669
			C7.058,74.076,8.702,78.402,12.383,80.057z"/>
	</g>
</g>
<g>
</g>
<g>
</g>
<g>
</g>
<g>
</g>
<g>
</g>
<g>
</g>
<g>
</g>
<g>
</g>
<g>
</g>
<g>
</g>
<g>
</g>
<g>
</g>
<g>
</g>
<g>
</g>
<g>
</g>
</svg>
