<?xml version="1.0" encoding="iso-8859-1"?>
<!-- Generator: Adobe Illustrator 16.0.0, SVG Export Plug-In . SVG Version: 6.00 Build 0)  -->
<!DOCTYPE svg PUBLIC "-//W3C//DTD SVG 1.1//EN" "http://www.w3.org/Graphics/SVG/1.1/DTD/svg11.dtd">
<svg version="1.1" id="Capa_1" xmlns="http://www.w3.org/2000/svg" xmlns:xlink="http://www.w3.org/1999/xlink" x="0px" y="0px"
	 width="118.859px" height="118.859px" viewBox="0 0 118.859 118.859" style="enable-background:new 0 0 118.859 118.859;"
	 xml:space="preserve">
<g>
	<path d="M101.96,53.264L66.412,39.629L80.289,9.356c1.519-3.315,0.062-7.235-3.253-8.753c-3.316-1.523-7.234-0.063-8.757,3.251
		L54.058,34.891l-32.431-12.44c-3.396-1.305-7.224,0.394-8.529,3.801c-1.308,3.405,0.396,7.224,3.801,8.529l31.647,12.138
		L32.162,82.667l-15.618,7.062c-3.324,1.503-4.798,5.412-3.297,8.735c1.103,2.44,3.506,3.888,6.022,3.888
		c0.909,0,1.833-0.189,2.716-0.59l1.801-0.814l-3.92,8.556c-1.519,3.313-0.064,7.234,3.25,8.756
		c0.892,0.408,1.827,0.601,2.747,0.601c2.502,0,4.897-1.429,6.006-3.854l10.239-22.341l60.208-27.22
		c2.431-1.096,3.96-3.546,3.883-6.208C106.119,56.574,104.445,54.216,101.96,53.264z M50.484,74.384L60.9,51.656l21.562,8.271
		L50.484,74.384z"/>
</g>
<g>
</g>
<g>
</g>
<g>
</g>
<g>
</g>
<g>
</g>
<g>
</g>
<g>
</g>
<g>
</g>
<g>
</g>
<g>
</g>
<g>
</g>
<g>
</g>
<g>
</g>
<g>
</g>
<g>
</g>
</svg>
