<?xml version="1.0" encoding="iso-8859-1"?>
<!-- Generator: Adobe Illustrator 16.0.0, SVG Export Plug-In . SVG Version: 6.00 Build 0)  -->
<!DOCTYPE svg PUBLIC "-//W3C//DTD SVG 1.1//EN" "http://www.w3.org/Graphics/SVG/1.1/DTD/svg11.dtd">
<svg version="1.1" id="Capa_1" xmlns="http://www.w3.org/2000/svg" xmlns:xlink="http://www.w3.org/1999/xlink" x="0px" y="0px"
	 width="93.549px" height="93.549px" viewBox="0 0 93.549 93.549" style="enable-background:new 0 0 93.549 93.549;"
	 xml:space="preserve">
<g>
	<path d="M81.831,52.344c-1.115-2.479-4.029-3.588-6.51-2.473L39.41,66.019l7.054-13.837l32.904-14.874
		c1.812-0.817,2.952-2.645,2.895-4.629c-0.057-1.986-1.305-3.74-3.159-4.453l-17.084-6.553l7.399-14.514
		c1.234-2.422,0.272-5.388-2.151-6.622c-2.422-1.231-5.386-0.274-6.622,2.15l-7.871,15.44L19.202,5.251
		c-2.544-0.98-5.386,0.299-6.359,2.834c-0.975,2.539,0.295,5.386,2.834,6.359L48.28,26.948l-9.017,17.687L15.412,55.418
		c-2.478,1.12-3.58,4.035-2.458,6.515c0.822,1.818,2.613,2.895,4.488,2.895c0.678,0,1.367-0.141,2.024-0.438l12.637-5.713
		l-7.031,13.792l-10.883,4.895c-2.479,1.115-3.587,4.028-2.472,6.511c0.821,1.822,2.616,2.906,4.494,2.906
		c0.584,0,1.173-0.127,1.748-0.347c-1.2,2.414-0.24,5.349,2.168,6.578c0.717,0.365,1.479,0.538,2.232,0.538
		c1.792,0,3.52-0.983,4.39-2.69L32.27,80.03l47.09-21.174C81.839,57.738,82.948,54.824,81.831,52.344z M57.522,30.494l7.042,2.702
		l-10.938,4.946L57.522,30.494z"/>
</g>
<g>
</g>
<g>
</g>
<g>
</g>
<g>
</g>
<g>
</g>
<g>
</g>
<g>
</g>
<g>
</g>
<g>
</g>
<g>
</g>
<g>
</g>
<g>
</g>
<g>
</g>
<g>
</g>
<g>
</g>
</svg>
