<?xml version="1.0" encoding="iso-8859-1"?>
<!-- Generator: Adobe Illustrator 16.0.0, SVG Export Plug-In . SVG Version: 6.00 Build 0)  -->
<!DOCTYPE svg PUBLIC "-//W3C//DTD SVG 1.1//EN" "http://www.w3.org/Graphics/SVG/1.1/DTD/svg11.dtd">
<svg version="1.1" id="Capa_1" xmlns="http://www.w3.org/2000/svg" xmlns:xlink="http://www.w3.org/1999/xlink" x="0px" y="0px"
	 width="145.302px" height="145.301px" viewBox="0 0 145.302 145.301" style="enable-background:new 0 0 145.302 145.301;"
	 xml:space="preserve">
<g>
	<g>
		<path d="M37.196,142.111l13.064-19.143h69.702c4.035,0,7.308-3.271,7.308-7.31c0-4.036-3.271-7.308-7.308-7.308H60.236
			l4.987-7.308h54.739c4.035,0,7.308-3.272,7.308-7.31s-3.271-7.309-7.308-7.309H75.2l36.575-53.595h8.187
			c4.035,0,7.308-3.271,7.308-7.308c0-3.467-2.419-6.354-5.655-7.104l4.77-6.989c2.275-3.335,1.418-7.881-1.917-10.156
			c-3.332-2.278-7.88-1.416-10.156,1.915l-10.255,15.028H58.114c-22.314,0-40.468,16.247-40.468,36.213v7.708
			c0,17.531,13.542,33.191,30.758,37.621l-5.866,8.595H27.39c-4.037,0-7.308,3.271-7.308,7.308s3.271,7.31,7.308,7.31h5.172
			l-7.442,10.903c-2.275,3.336-1.417,7.882,1.917,10.156c1.259,0.862,2.692,1.271,4.112,1.271
			C33.485,145.301,35.78,144.185,37.196,142.111z M32.263,62.137v-7.708c0-13.338,13.418-21.596,25.852-21.596h35.966L57.524,86.396
			C44.457,86.052,32.263,74.437,32.263,62.137z"/>
	</g>
</g>
<g>
</g>
<g>
</g>
<g>
</g>
<g>
</g>
<g>
</g>
<g>
</g>
<g>
</g>
<g>
</g>
<g>
</g>
<g>
</g>
<g>
</g>
<g>
</g>
<g>
</g>
<g>
</g>
<g>
</g>
</svg>
