<?xml version="1.0" encoding="iso-8859-1"?>
<!-- Generator: Adobe Illustrator 16.0.0, SVG Export Plug-In . SVG Version: 6.00 Build 0)  -->
<!DOCTYPE svg PUBLIC "-//W3C//DTD SVG 1.1//EN" "http://www.w3.org/Graphics/SVG/1.1/DTD/svg11.dtd">
<svg version="1.1" id="Capa_1" xmlns="http://www.w3.org/2000/svg" xmlns:xlink="http://www.w3.org/1999/xlink" x="0px" y="0px"
	 width="93.557px" height="93.557px" viewBox="0 0 93.557 93.557" style="enable-background:new 0 0 93.557 93.557;"
	 xml:space="preserve">
<g>
	<path d="M91.996,1.579c-2.09-2.09-5.5-2.09-7.59,0L69.773,16.21H5.831c-2.97,0-5.363,2.393-5.363,5.363
		c0,2.97,2.393,5.362,5.363,5.362h53.216l-14.3,14.302H5.831c-2.97,0-5.363,2.393-5.363,5.362c0,2.971,2.393,5.362,5.363,5.362
		h28.19L19.72,66.264H5.831c-2.97,0-5.363,2.394-5.363,5.362c0,2.971,2.393,5.363,5.363,5.363h3.135l-7.398,7.397
		c-2.09,2.09-2.09,5.5,0,7.591c1.045,1.046,2.42,1.567,3.795,1.567s2.75-0.521,3.795-1.567l14.961-14.962h60.368
		c2.971,0,5.363-2.393,5.363-5.361c0-2.97-2.393-5.363-5.363-5.363H34.873L49.174,51.99h35.341c2.971,0,5.362-2.395,5.362-5.363
		c0-2.97-2.393-5.363-5.362-5.363H59.9l14.301-14.301h10.286c2.972,0,5.363-2.393,5.363-5.363c0-2.833-2.2-5.114-4.979-5.335
		l7.068-7.067C94.086,7.08,94.086,3.669,91.996,1.579z"/>
</g>
<g>
</g>
<g>
</g>
<g>
</g>
<g>
</g>
<g>
</g>
<g>
</g>
<g>
</g>
<g>
</g>
<g>
</g>
<g>
</g>
<g>
</g>
<g>
</g>
<g>
</g>
<g>
</g>
<g>
</g>
</svg>
