<?xml version="1.0" encoding="iso-8859-1"?>
<!-- Generator: Adobe Illustrator 16.0.0, SVG Export Plug-In . SVG Version: 6.00 Build 0)  -->
<!DOCTYPE svg PUBLIC "-//W3C//DTD SVG 1.1//EN" "http://www.w3.org/Graphics/SVG/1.1/DTD/svg11.dtd">
<svg version="1.1" id="Capa_1" xmlns="http://www.w3.org/2000/svg" xmlns:xlink="http://www.w3.org/1999/xlink" x="0px" y="0px"
	 width="131.551px" height="131.551px" viewBox="0 0 131.551 131.551" style="enable-background:new 0 0 131.551 131.551;"
	 xml:space="preserve">
<g>
	<g>
		<path d="M113.243,99.313L76.426,82.668l16.797-36.646l19.627-7.527c3.771-1.445,5.652-5.671,4.208-9.44
			c-1.443-3.764-5.661-5.656-9.439-4.207l-5.69,2.184l7.643-16.675c1.682-3.668,0.067-8.008-3.601-9.691
			c-3.672-1.681-8.008-0.07-9.69,3.601L82.417,34.515L18.699,58.952c-2.753,1.058-4.604,3.662-4.689,6.609
			c-0.085,2.946,1.607,5.658,4.297,6.871l38.71,17.499l-14.332,31.265c-1.681,3.67-0.068,8.008,3.601,9.69
			c0.986,0.453,2.022,0.665,3.04,0.665c2.77,0,5.42-1.581,6.648-4.266l14.362-31.333l36.887,16.676
			c0.976,0.443,1.998,0.652,3.004,0.652c2.785,0,5.442-1.599,6.662-4.303C118.555,105.302,116.92,100.974,113.243,99.313z
			 M40.28,66.328l33.431-12.823L63.104,76.645L40.28,66.328z"/>
	</g>
</g>
<g>
</g>
<g>
</g>
<g>
</g>
<g>
</g>
<g>
</g>
<g>
</g>
<g>
</g>
<g>
</g>
<g>
</g>
<g>
</g>
<g>
</g>
<g>
</g>
<g>
</g>
<g>
</g>
<g>
</g>
</svg>
