<?xml version="1.0" encoding="iso-8859-1"?>
<!-- Generator: Adobe Illustrator 16.0.0, SVG Export Plug-In . SVG Version: 6.00 Build 0)  -->
<!DOCTYPE svg PUBLIC "-//W3C//DTD SVG 1.1//EN" "http://www.w3.org/Graphics/SVG/1.1/DTD/svg11.dtd">
<svg version="1.1" id="Capa_1" xmlns="http://www.w3.org/2000/svg" xmlns:xlink="http://www.w3.org/1999/xlink" x="0px" y="0px"
	 width="140.997px" height="140.997px" viewBox="0 0 140.997 140.997" style="enable-background:new 0 0 140.997 140.997;"
	 xml:space="preserve">
<g>
	<g>
		<path d="M118.867,127.022L64.043,102.37l6.564-12.879l40.426,18.271c0.978,0.443,2,0.653,3.006,0.653
			c2.784,0,5.441-1.6,6.665-4.304c1.661-3.678,0.029-8.005-3.648-9.668L77.256,76.451l17.562-34.45l21.842-8.378
			c3.77-1.444,5.651-5.671,4.207-9.44s-5.679-5.649-9.438-4.207l-6.69,2.567l6.072-11.913c1.832-3.596,0.404-7.995-3.191-9.83
			c-3.6-1.837-7.997-0.405-9.832,3.193L84.343,30.368L22.51,54.085c-2.753,1.057-4.602,3.661-4.687,6.609
			c-0.088,2.948,1.608,5.659,4.295,6.873l35.16,15.896l-6.58,12.904L28.125,86.216c-3.684-1.658-8.01-0.009-9.664,3.67
			c-1.654,3.684-0.012,8.007,3.669,9.664l21.92,9.854l-9.601,18.832c-1.832,3.597-0.404,7.994,3.191,9.829
			c1.065,0.544,2.198,0.799,3.313,0.799c2.66,0,5.225-1.459,6.517-3.992l9.924-19.468l55.478,24.946
			c0.973,0.438,1.99,0.646,2.993,0.646c2.79,0,5.453-1.605,6.67-4.314C124.192,133.005,122.548,128.678,118.867,127.022z
			 M44.091,61.462l30.333-11.635l-10.502,20.6L44.091,61.462z"/>
	</g>
</g>
<g>
</g>
<g>
</g>
<g>
</g>
<g>
</g>
<g>
</g>
<g>
</g>
<g>
</g>
<g>
</g>
<g>
</g>
<g>
</g>
<g>
</g>
<g>
</g>
<g>
</g>
<g>
</g>
<g>
</g>
</svg>
