<?xml version="1.0" encoding="UTF-8" standalone="no"?>
<!-- Generator: Adobe Illustrator 16.0.0, SVG Export Plug-In . SVG Version: 6.00 Build 0)  -->

<svg
   xmlns:dc="http://purl.org/dc/elements/1.1/"
   xmlns:cc="http://creativecommons.org/ns#"
   xmlns:rdf="http://www.w3.org/1999/02/22-rdf-syntax-ns#"
   xmlns:svg="http://www.w3.org/2000/svg"
   xmlns="http://www.w3.org/2000/svg"
   xmlns:sodipodi="http://sodipodi.sourceforge.net/DTD/sodipodi-0.dtd"
   xmlns:inkscape="http://www.inkscape.org/namespaces/inkscape"
   version="1.1"
   id="Capa_1"
   x="0px"
   y="0px"
   width="92.132px"
   height="92.132px"
   viewBox="0 0 92.132 92.132"
   style="enable-background:new 0 0 92.132 92.132;"
   xml:space="preserve"
   inkscape:version="0.91 r13725"
   sodipodi:docname="Product.svg"><metadata
     id="metadata43"><rdf:RDF><cc:Work
         rdf:about=""><dc:format>image/svg+xml</dc:format><dc:type
           rdf:resource="http://purl.org/dc/dcmitype/StillImage" /></cc:Work></rdf:RDF></metadata><defs
     id="defs41" /><sodipodi:namedview
     pagecolor="#ffffff"
     bordercolor="#666666"
     borderopacity="1"
     objecttolerance="10"
     gridtolerance="10"
     guidetolerance="10"
     inkscape:pageopacity="0"
     inkscape:pageshadow="2"
     inkscape:window-width="1920"
     inkscape:window-height="1056"
     id="namedview39"
     showgrid="false"
     inkscape:zoom="6.1516316"
     inkscape:cx="-6.7301713"
     inkscape:cy="36.888245"
     inkscape:window-x="0"
     inkscape:window-y="24"
     inkscape:window-maximized="1"
     inkscape:current-layer="g5" /><g
     id="g3"><g
       id="g5"><path
         d="m 14.224451,77.488842 c 1.058619,1.06159 2.450795,1.591271 3.838515,1.591271 1.388462,0 2.779895,-0.529681 3.838514,-1.591271 L 46.855908,52.533671 71.810337,77.488842 c 1.059361,1.06159 2.450795,1.591271 3.838514,1.591271 1.386976,0 2.77841,-0.529681 3.838514,-1.591271 2.120209,-2.120209 2.120209,-5.55682 0,-7.677029 L 54.531451,44.857385 78.206622,21.182214 c 2.120952,-2.119467 2.120952,-5.557563 0,-7.677029 -2.119466,-2.120952 -5.556076,-2.120952 -7.677028,0 L 46.855165,37.179614 23.18148,13.504442 c -2.120209,-2.120952 -5.557563,-2.120952 -7.676286,0 -2.120952,2.119466 -2.120952,5.557563 0,7.677029 L 39.179623,44.856642 14.225937,69.811071 c -2.122438,2.119466 -2.122438,5.556076 -0.0015,7.677771 z"
         id="path7"
         inkscape:connector-curvature="0" /></g></g><g
     id="g9" /><g
     id="g11" /><g
     id="g13" /><g
     id="g15" /><g
     id="g17" /><g
     id="g19" /><g
     id="g21" /><g
     id="g23" /><g
     id="g25" /><g
     id="g27" /><g
     id="g29" /><g
     id="g31" /><g
     id="g33" /><g
     id="g35" /><g
     id="g37" /></svg>