<?xml version="1.0" encoding="UTF-8" standalone="no"?>
<!-- Generator: Adobe Illustrator 16.0.0, SVG Export Plug-In . SVG Version: 6.00 Build 0)  -->

<svg
   xmlns:dc="http://purl.org/dc/elements/1.1/"
   xmlns:cc="http://creativecommons.org/ns#"
   xmlns:rdf="http://www.w3.org/1999/02/22-rdf-syntax-ns#"
   xmlns:svg="http://www.w3.org/2000/svg"
   xmlns="http://www.w3.org/2000/svg"
   xmlns:sodipodi="http://sodipodi.sourceforge.net/DTD/sodipodi-0.dtd"
   xmlns:inkscape="http://www.inkscape.org/namespaces/inkscape"
   version="1.1"
   id="Capa_1"
   x="0px"
   y="0px"
   width="142.514px"
   height="142.514px"
   viewBox="0 0 142.514 142.514"
   style="enable-background:new 0 0 142.514 142.514;"
   xml:space="preserve"
   inkscape:version="0.91 r13725"
   sodipodi:docname="Reflexive.svg"><metadata
     id="metadata45"><rdf:RDF><cc:Work
         rdf:about=""><dc:format>image/svg+xml</dc:format><dc:type
           rdf:resource="http://purl.org/dc/dcmitype/StillImage" /><dc:title></dc:title></cc:Work></rdf:RDF></metadata><defs
     id="defs43" /><sodipodi:namedview
     pagecolor="#ffffff"
     bordercolor="#666666"
     borderopacity="1"
     objecttolerance="10"
     gridtolerance="10"
     guidetolerance="10"
     inkscape:pageopacity="0"
     inkscape:pageshadow="2"
     inkscape:window-width="1920"
     inkscape:window-height="1056"
     id="namedview41"
     showgrid="false"
     inkscape:zoom="3.3119551"
     inkscape:cx="94.254409"
     inkscape:cy="112.12887"
     inkscape:window-x="0"
     inkscape:window-y="24"
     inkscape:window-maximized="1"
     inkscape:current-layer="g3" /><g
     id="g3"><g
       id="g3464"
       transform="translate(-2,-4)"><path
         d="m 101.04197,16.323585 c -1.91128,-2.726394 -6.138795,-3.058496 -9.444434,-0.741139 -3.305638,2.317355 -4.436581,6.405901 -2.525294,9.132296 l 26.526498,37.83926 c 1.91128,2.7264 6.1388,3.0585 9.44608,0.74001 3.30482,-2.31677 4.43541,-6.40408 2.52364,-9.13115 L 101.04197,16.323585 Z"
         id="path7"
         inkscape:connector-curvature="0" /><path
         d="m 126.16943,24.059691 c 1.79354,-2.805249 0.49132,-6.840892 -2.90995,-9.015472 -3.40126,-2.174579 -7.6125,-1.663947 -9.40604,1.141315 L 88.961284,55.119392 c -1.793534,2.80525 -0.491307,6.8409 2.91163,9.01657 3.400415,2.17404 7.610366,1.66355 9.404336,-1.14241 l 24.89218,-38.933861 z"
         id="path7-9"
         inkscape:connector-curvature="0" /><path
         d="m 131.60148,45.311372 c 3.32957,-0.0112 6.01725,-3.29117 6.00372,-7.32815 -0.0135,-4.03699 -2.72314,-7.300926 -6.05272,-7.289769 l -46.210832,0.154884 c -3.329581,0.01116 -6.017263,3.291185 -6.003741,7.330165 0.01353,4.03597 2.722319,7.29891 6.052725,7.28775 l 46.210848,-0.15488 z"
         id="path7-9-3"
         inkscape:connector-curvature="0" /></g></g><g
     id="g11" /><g
     id="g13" /><g
     id="g15" /><g
     id="g17" /><g
     id="g19" /><g
     id="g21" /><g
     id="g23" /><g
     id="g25" /><g
     id="g27" /><g
     id="g29" /><g
     id="g31" /><g
     id="g33" /><g
     id="g35" /><g
     id="g37" /><g
     id="g39" /></svg>