<?xml version="1.0" encoding="UTF-8" standalone="no"?>
<!-- Generator: Adobe Illustrator 16.0.0, SVG Export Plug-In . SVG Version: 6.00 Build 0)  -->

<svg
   xmlns:dc="http://purl.org/dc/elements/1.1/"
   xmlns:cc="http://creativecommons.org/ns#"
   xmlns:rdf="http://www.w3.org/1999/02/22-rdf-syntax-ns#"
   xmlns:svg="http://www.w3.org/2000/svg"
   xmlns="http://www.w3.org/2000/svg"
   xmlns:sodipodi="http://sodipodi.sourceforge.net/DTD/sodipodi-0.dtd"
   xmlns:inkscape="http://www.inkscape.org/namespaces/inkscape"
   version="1.1"
   id="Capa_1"
   x="0px"
   y="0px"
   width="121.805px"
   height="121.804px"
   viewBox="0 0 121.805 121.804"
   style="enable-background:new 0 0 121.805 121.804;"
   xml:space="preserve"
   inkscape:version="0.91 r13725"
   sodipodi:docname="Some.svg"><metadata
     id="metadata43"><rdf:RDF><cc:Work
         rdf:about=""><dc:format>image/svg+xml</dc:format><dc:type
           rdf:resource="http://purl.org/dc/dcmitype/StillImage" /></cc:Work></rdf:RDF></metadata><defs
     id="defs41" /><sodipodi:namedview
     pagecolor="#ffffff"
     bordercolor="#666666"
     borderopacity="1"
     objecttolerance="10"
     gridtolerance="10"
     guidetolerance="10"
     inkscape:pageopacity="0"
     inkscape:pageshadow="2"
     inkscape:window-width="1920"
     inkscape:window-height="1056"
     id="namedview39"
     showgrid="false"
     inkscape:zoom="5.4801878"
     inkscape:cx="33.164742"
     inkscape:cy="49.518847"
     inkscape:window-x="0"
     inkscape:window-y="24"
     inkscape:window-maximized="1"
     inkscape:current-layer="Capa_1" /><path
     inkscape:connector-curvature="0"
     style="clip-rule:evenodd;fill-rule:evenodd;image-rendering:optimizeQuality;shape-rendering:geometricPrecision;text-rendering:geometricPrecision"
     id="path73"
     class="fil0"
     d="m 17.040981,47.32482 0.441429,9.377439 -1.003824,0 c -1.195199,-2.781283 -2.440055,-4.688726 -3.724623,-5.70248 -1.28547,-1.024585 -2.56011,-1.536429 -3.8356603,-1.536429 -0.8034184,0 -1.4858772,0.270815 -2.0582019,0.813354 -0.5723236,0.54163 -0.8530666,1.164512 -0.8530666,1.86773 0,0.531702 0.2004,1.043547 0.5921807,1.525599 0.6219801,0.803418 2.3795675,2.189096 5.2610511,4.136259 2.881483,1.948074 4.778998,3.604559 5.69256,4.97038 0.913553,1.364912 1.364904,2.891412 1.364904,4.57769 0,1.526501 -0.380944,3.022306 -1.143746,4.498256 -0.763697,1.465112 -1.847859,2.599831 -3.233544,3.383393 -1.395607,0.782659 -2.931133,1.17444 -4.6183117,1.17444 -1.3152633,0 -3.0719555,-0.411637 -5.27098,-1.23492 -0.5822517,-0.221165 -0.9839603,-0.321365 -1.2042246,-0.321365 -0.6427313,0 -1.185271,0.49198 -1.6167719,1.466014 l -0.97403334,0 -0.47121392,-9.879356 1.00382456,0 c 0.8828599,2.589902 2.0979232,4.52804 3.6343511,5.823446 1.5355265,1.294498 2.9916125,1.937235 4.3673627,1.937235 0.9433371,0 1.7070431,-0.290678 2.3091591,-0.863002 0.59218,-0.582259 0.893689,-1.28547 0.893689,-2.108753 0,-0.93341 -0.291581,-1.746763 -0.883761,-2.439152 C 11.127271,68.107237 9.8120158,67.063698 7.773671,65.678021 4.7721305,63.599962 2.8339846,62.003047 1.9511247,60.908949 0.65571847,59.302107 0.00305187,57.525556 0.00305187,55.587412 c 0,-2.117779 0.73300231,-4.036059 2.19902353,-5.753032 1.4551836,-1.71607 3.5738724,-2.570047 6.3343902,-2.570047 1.4858774,0 2.9320354,0.361989 4.3276404,1.08417 0.521773,0.291572 0.954176,0.442331 1.28547,0.442331 0.361087,0 0.64183,-0.07039 0.853068,-0.221166 0.221165,-0.150759 0.562395,-0.562395 1.033617,-1.244848 l 1.004727,0 z" /><path
     inkscape:connector-curvature="0"
     style="clip-rule:evenodd;fill-rule:evenodd;image-rendering:optimizeQuality;shape-rendering:geometricPrecision;text-rendering:geometricPrecision"
     id="path65"
     class="fil0"
     d="m 35.326245,47.264339 c 2.389503,0 4.618313,0.612948 6.676514,1.847867 2.058201,1.234919 3.624422,2.991612 4.688727,5.270979 1.07424,2.268538 1.605942,4.75824 1.605942,7.469102 0,3.906067 -0.983961,7.168502 -2.971756,9.789092 -2.389503,3.182992 -5.692552,4.769072 -9.909163,4.769072 -4.13626,0 -7.329181,-1.456086 -9.557967,-4.357428 -2.238746,-2.901339 -3.353608,-6.264876 -3.353608,-10.079755 0,-3.945788 1.144647,-7.37974 3.424015,-10.31088 2.289296,-2.932035 5.421738,-4.398049 9.397311,-4.398049 z m 0.120062,2.088897 c -1.003826,0 -1.856893,0.371014 -2.570046,1.133817 -0.722176,0.75377 -1.194298,2.239647 -1.415464,4.468464 -0.231095,2.228817 -0.341229,5.320628 -0.341229,9.276322 0,2.098825 0.140825,4.055924 0.411641,5.883925 0.221167,1.395606 0.682457,2.449081 1.385678,3.172157 0.702316,0.73301 1.505735,1.094096 2.40936,1.094096 0.883762,0 1.616772,-0.250958 2.208953,-0.73301 0.762797,-0.672524 1.274639,-1.605943 1.525598,-2.801141 0.391781,-1.856893 0.593086,-5.622138 0.593086,-11.294841 0,-3.332842 -0.191375,-5.622138 -0.562394,-6.866993 -0.37192,-1.244848 -0.924383,-2.148473 -1.646564,-2.720798 -0.511843,-0.411637 -1.175342,-0.612044 -1.998624,-0.612044 z" /><path
     inkscape:connector-curvature="0"
     style="clip-rule:evenodd;fill-rule:evenodd;image-rendering:optimizeQuality;shape-rendering:geometricPrecision;text-rendering:geometricPrecision"
     id="path61"
     class="fil0"
     d="m 61.487925,48.910887 0,3.614494 c 1.505734,-1.646564 2.901337,-2.801141 4.18681,-3.453808 1.285473,-0.662596 2.691013,-0.983962 4.226538,-0.983962 1.767516,0 3.243468,0.411638 4.437763,1.234921 1.195207,0.823282 2.118684,2.078967 2.771352,3.765245 1.566218,-1.766622 3.071952,-3.042164 4.507283,-3.824823 1.446151,-0.783561 2.951895,-1.175343 4.518113,-1.175343 1.897521,0 3.414083,0.432404 4.547903,1.305335 1.124796,0.873833 1.908351,1.977859 2.349784,3.322914 0.441433,1.345957 0.662595,3.484502 0.662595,6.425564 l 0,11.265035 c 0,2.11868 0.190469,3.433946 0.57232,3.945785 0.381851,0.511846 1.184378,0.84314 2.399429,1.003827 l 0,1.05438 -14.206135,0 0,-1.05438 c 1.113956,-0.100203 1.937239,-0.531703 2.469841,-1.295409 0.351157,-0.531696 0.531699,-1.746762 0.531699,-3.654203 l 0,-11.816632 c 0,-2.45991 -0.100204,-4.016203 -0.301502,-4.678799 -0.190479,-0.672524 -0.501918,-1.164512 -0.923487,-1.485877 -0.421568,-0.321367 -0.913559,-0.491981 -1.485879,-0.491981 -0.843137,0 -1.696212,0.311438 -2.560117,0.933411 -0.862991,0.612945 -1.736833,1.546357 -2.620591,2.781283 l 0,14.75858 c 0,1.987784 0.170615,3.232643 0.501918,3.734545 0.452263,0.733006 1.315264,1.134724 2.5908,1.215067 l 0,1.054379 -14.236787,0 0,-1.054379 c 0.762799,-0.03974 1.365812,-0.231102 1.807245,-0.582261 0.441433,-0.341224 0.733008,-0.75287 0.883759,-1.234915 0.15075,-0.472119 0.22027,-1.525603 0.22027,-3.132444 l 0,-11.816631 c 0,-2.489703 -0.100203,-4.055925 -0.290682,-4.6788 -0.201299,-0.632803 -0.521772,-1.124791 -0.983962,-1.475949 -0.462189,-0.351159 -0.964107,-0.521766 -1.485879,-0.521766 -0.783565,0 -1.505733,0.2004 -2.148475,0.612038 -0.923476,0.612946 -1.907448,1.646564 -2.941957,3.122505 l 0,14.75858 c 0,1.948071 0.19048,3.222715 0.57232,3.845584 0.38185,0.612047 1.184367,0.983964 2.399428,1.104029 l 0,1.054379 -14.176329,0 0,-1.054379 c 1.154575,-0.120057 1.977858,-0.491982 2.469839,-1.123893 0.331301,-0.432389 0.501916,-1.707041 0.501916,-3.82572 l 0,-15.531288 c 0,-2.078968 -0.190472,-3.363536 -0.582252,-3.875374 -0.380951,-0.512739 -1.174441,-0.84404 -2.389503,-1.004727 l 0,-1.084168 11.204581,0 z" /><path
     inkscape:connector-curvature="0"
     style="clip-rule:evenodd;fill-rule:evenodd;image-rendering:optimizeQuality;shape-rendering:geometricPrecision;text-rendering:geometricPrecision"
     id="path45"
     class="fil0"
     d="m 121.79539,60.848425 -15.07996,0 c 0.17061,3.644279 1.14463,6.535691 2.91217,8.654411 1.34506,1.626699 2.97176,2.440054 4.8792,2.440054 1.17444,0 2.24868,-0.331302 3.20285,-0.983962 0.9632,-0.662595 1.98778,-1.847866 3.09182,-3.544079 l 0.99389,0.642739 c -1.48587,3.042162 -3.13244,5.190644 -4.93968,6.455348 -1.79641,1.264712 -3.88531,1.897515 -6.26488,1.897515 -4.07578,0 -7.1685,-1.566221 -9.26638,-4.708585 -1.687191,-2.530324 -2.530329,-5.662759 -2.530329,-9.407246 0,-4.588527 1.244839,-8.242758 3.724619,-10.963517 2.47978,-2.710868 5.39194,-4.066754 8.72481,-4.066754 2.78128,0 5.20057,1.13472 7.24883,3.424015 2.04828,2.289296 3.1523,5.672696 3.30305,10.160084 z m -7.22808,-1.967931 c 0,-3.162226 -0.17151,-5.320628 -0.52268,-6.505905 -0.34123,-1.174441 -0.87293,-2.068131 -1.596,-2.670247 -0.41164,-0.351158 -0.96411,-0.532603 -1.64657,-0.532603 -1.02458,0 -1.85779,0.502811 -2.49963,1.506636 -1.15457,1.736835 -1.73773,4.13626 -1.73773,7.168501 l 0,1.033618 8.00261,0 z" /></svg>