<?xml version="1.0" encoding="UTF-8" standalone="no"?>
<!-- Generator: Adobe Illustrator 16.0.0, SVG Export Plug-In . SVG Version: 6.00 Build 0)  -->

<svg
   xmlns:dc="http://purl.org/dc/elements/1.1/"
   xmlns:cc="http://creativecommons.org/ns#"
   xmlns:rdf="http://www.w3.org/1999/02/22-rdf-syntax-ns#"
   xmlns:svg="http://www.w3.org/2000/svg"
   xmlns="http://www.w3.org/2000/svg"
   xmlns:sodipodi="http://sodipodi.sourceforge.net/DTD/sodipodi-0.dtd"
   xmlns:inkscape="http://www.inkscape.org/namespaces/inkscape"
   version="1.1"
   id="Capa_1"
   x="0px"
   y="0px"
   width="142.514px"
   height="142.514px"
   viewBox="0 0 142.514 142.514"
   style="enable-background:new 0 0 142.514 142.514;"
   xml:space="preserve"
   inkscape:version="0.91 r13725"
   sodipodi:docname="Variable.svg"><metadata
     id="metadata45"><rdf:RDF><cc:Work
         rdf:about=""><dc:format>image/svg+xml</dc:format><dc:type
           rdf:resource="http://purl.org/dc/dcmitype/StillImage" /></cc:Work></rdf:RDF></metadata><defs
     id="defs43" /><sodipodi:namedview
     pagecolor="#ffffff"
     bordercolor="#666666"
     borderopacity="1"
     objecttolerance="10"
     gridtolerance="10"
     guidetolerance="10"
     inkscape:pageopacity="0"
     inkscape:pageshadow="2"
     inkscape:window-width="1920"
     inkscape:window-height="1056"
     id="namedview41"
     showgrid="false"
     inkscape:zoom="3.3119551"
     inkscape:cx="139.42368"
     inkscape:cy="97.619411"
     inkscape:window-x="0"
     inkscape:window-y="24"
     inkscape:window-maximized="1"
     inkscape:current-layer="g5" /><g
     id="g3"><g
       id="g5"><path
         d="m -222.27899,146.74111 c 11.645,0 17.827,-10.4 19.645,-16.544 0.029,-0.097 0.056,-0.196 0.081,-0.297 4.236,-17.545 10.984,-45.353 15.983,-65.58 l 17.886,0 c 3.363,0 6.09,-2.726 6.09,-6.09 0,-3.364 -2.727,-6.09 -6.09,-6.09 l -14.859,0 c 1.6,-6.373 2.771,-10.912 3.232,-12.461 l 0.512,-1.734 c 1.888,-6.443 6.309,-21.535 13.146,-21.535 6.34,0 7.285,9.764 7.328,10.236 0.27,3.343 3.186,5.868 6.537,5.579 3.354,-0.256 5.864,-3.187 5.605,-6.539 -0.569,-7.423 -5.376,-21.4589996 -19.472,-21.4589996 -15.961,0 -21.953,20.4579996 -24.832,30.2919996 l -0.49,1.659 c -0.585,1.946 -2.12,7.942 -4.122,15.962 l -21.308,0 c -3.364,0 -6.09,2.726 -6.09,6.09 0,3.364 2.726,6.09 6.09,6.09 l 18.291,0 c -6.253,25.362 -14.334,58.815 -15.223,62.498 -0.332,0.965 -2.829,7.742 -7.937,7.742 -7.8,0 -11.177,-10.948 -11.204,-11.03 -0.936,-3.229 -4.305,-5.098 -7.544,-4.156 -3.23,0.937 -5.092,4.314 -4.156,7.545 2.131,7.361 9.35,19.822 22.901,19.822 z"
         id="path7"
         inkscape:connector-curvature="0" /><path
         d="m 37.555399,93.031669 c 3.368143,0 6.198546,-2.32742 6.198546,-6.032667 0,-1.72114 -0.707601,-3.274276 -2.213833,-4.998156 L 29.672313,68.730258 41.188188,55.631327 c 1.06234,-1.29291 1.858156,-2.671649 1.858156,-4.481358 0,-3.277928 -2.74688,-5.689351 -6.290515,-5.689351 -2.390264,0 -4.24842,1.464567 -5.845684,3.363757 L 21.965657,60.195774 13.197601,48.822549 c -1.773695,-2.152111 -3.6309125,-3.361931 -6.2877002,-3.361931 -3.369081,0 -6.20042302,2.329246 -6.20042302,6.034492 0,1.721141 0.70947792,3.274277 2.21195662,4.995417 L 13.994355,68.901002 1.8581562,82.86096 C 0.70666239,84.15387 0,85.532609 0,87.342317 c 0,3.277016 2.7459419,5.687526 6.2867616,5.687526 2.3921413,0 4.2512354,-1.464567 5.8456834,-3.361931 l 9.562935,-12.235165 9.56575,12.235165 c 1.777448,2.157589 3.637482,3.363757 6.294269,3.363757 z"
         id="path9"
         inkscape:connector-curvature="0" /><path
         d="M 81.575727,68.732084 93.091603,55.633153 c 1.06234,-1.29291 1.858156,-2.671649 1.858156,-4.481358 0,-3.277928 -2.74688,-5.689351 -6.290515,-5.689351 -2.390265,0 -4.248422,1.464567 -5.845684,3.363757 L 73.869072,60.1976 65.101015,48.824375 c -1.773694,-2.152111 -3.630912,-3.361931 -6.2877,-3.361931 -3.369081,0 -6.200423,2.329246 -6.200423,6.034493 0,1.72114 0.709478,3.274276 2.211957,4.995417 L 65.89777,68.902828 53.761571,82.862786 c -1.151494,1.29291 -1.858157,2.671649 -1.858157,4.481358 0,3.277015 2.745942,5.687525 6.286762,5.687525 2.392141,0 4.251236,-1.464567 5.845684,-3.361931 l 9.562935,-12.235165 z"
         id="path9-3"
         inkscape:connector-curvature="0"
         sodipodi:nodetypes="ccsscccsscccssccc" /><path
         d="m 136.54472,93.031669 c 3.36815,0 6.19855,-2.32742 6.19855,-6.032667 0,-1.72114 -0.7076,-3.274276 -2.21383,-4.998156 l -23.00809,0.0662 22.65616,-26.435736 c 1.06234,-1.29291 1.85816,-2.671648 1.85816,-4.481357 0,-3.277928 -2.74688,-5.689352 -6.29052,-5.689352 -8.6879,0.2623 -19.35903,-0.0199 -29.84593,0 -3.36909,0 -6.200427,2.329247 -6.200427,6.034493 0,1.721141 0.709477,3.274276 2.211957,4.995417 l 22.04722,0.50228 -23.1105,25.868144 c -1.151492,1.29291 -1.858155,2.671648 -1.858155,4.481357 0,3.277016 2.745945,5.687526 6.286765,5.687526 z"
         id="path9-7"
         inkscape:connector-curvature="0"
         sodipodi:nodetypes="cscccsccscccscc" /></g></g><g
     id="g11" /><g
     id="g13" /><g
     id="g15" /><g
     id="g17" /><g
     id="g19" /><g
     id="g21" /><g
     id="g23" /><g
     id="g25" /><g
     id="g27" /><g
     id="g29" /><g
     id="g31" /><g
     id="g33" /><g
     id="g35" /><g
     id="g37" /><g
     id="g39" /></svg>