<!DOCTYPE svg PUBLIC "-//W3C//DTD SVG 1.1//EN"
    "http://www.w3.org/Graphics/SVG/1.1/DTD/svg11.dtd" >
<!-- Generator: Adobe Illustrator 16.0.0, SVG Export Plug-In . SVG Version:
6.00 Build 0) -->
<svg contentScriptType="text/ecmascript" zoomAndPan="magnify"
     xmlns:xlink="http://www.w3.org/1999/xlink" contentStyleType="text/css"
     id="Capa_1"
     style="enable-background:new 0 0 141.293 141.293;fill:#2068a0;padding: 0px"
     version="1.1" xml:space="preserve" width="16"
     preserveAspectRatio="xMidYMid meet" viewBox="0 0 141.293 141.293"
     height="16" xmlns="http://www.w3.org/2000/svg" x="0px" y="0px">
    <g>
        <g>
            <path d="M7.309,137.639h14.616c4.036,0,7.309-3.271,7.309-7.308c0-4.037-3.272-7.309-7.309-7.309h-7.309V18.271h7.309    c4.036,0,7.309-3.271,7.309-7.308s-3.272-7.309-7.309-7.309H7.309C3.272,3.653,0,6.925,0,10.962v119.371    C0,134.367,3.272,137.639,7.309,137.639z"/>
            <path d="M141.293,130.333V10.962c0-4.037-3.271-7.309-7.309-7.309h-14.616c-4.036,0-7.308,3.272-7.308,7.309    s3.271,7.308,7.308,7.308h7.31v104.753h-7.31c-4.036,0-7.308,3.271-7.308,7.31c0,4.034,3.271,7.307,7.308,7.307h14.616    C138.021,137.639,141.293,134.367,141.293,130.333z"/>
            <path d="M28.939,112.355c1.425,1.428,3.296,2.142,5.167,2.142c1.871,0,3.741-0.714,5.167-2.142l31.47-31.47l31.47,31.47    c1.426,1.428,3.295,2.142,5.166,2.142s3.741-0.714,5.168-2.142c2.854-2.854,2.854-7.479,0-10.334l-31.471-31.47l29.844-29.842    c2.852-2.853,2.852-7.481,0-10.334c-2.854-2.855-7.482-2.855-10.334,0L70.742,60.217L40.9,30.375    c-2.853-2.853-7.481-2.857-10.334,0c-2.854,2.853-2.854,7.481,0,10.334l29.843,29.842l-31.47,31.47    C26.083,104.876,26.083,109.503,28.939,112.355z"/></g></g>
    <g></g>
    <g></g>
    <g></g>
    <g></g>
    <g></g>
    <g></g>
    <g></g>
    <g></g>
    <g></g>
    <g></g>
    <g></g>
    <g></g>
    <g></g>
    <g></g>
    <g></g></svg>