<!DOCTYPE svg PUBLIC "-//W3C//DTD SVG 1.1//EN"
    "http://www.w3.org/Graphics/SVG/1.1/DTD/svg11.dtd" >
<!-- Generator: Adobe Illustrator 16.0.0, SVG Export Plug-In . SVG Version:
6.00 Build 0) -->
<svg contentScriptType="text/ecmascript" zoomAndPan="magnify"
     xmlns:xlink="http://www.w3.org/1999/xlink" contentStyleType="text/css"
     id="Capa_1"
     style="enable-background:new 0 0 142.853 142.853;fill:#2068a0;padding: 0px"
     version="1.1" xml:space="preserve" width="16"
     preserveAspectRatio="xMidYMid meet" viewBox="0 0 142.853 142.853"
     height="16" xmlns="http://www.w3.org/2000/svg" x="0px" y="0px">
    <g>
        <g>
            <path d="M44.789,61.217c40.687-8.595,77.064-5.533,83.256-0.514c-0.636,3.552,1.439,7.111,4.971,8.241    c0.74,0.236,1.49,0.351,2.229,0.351c3.094,0,5.965-1.979,6.959-5.082c1.457-4.555,0.438-9.228-2.807-12.814    c-12.994-14.382-65.938-11.177-97.629-4.479c-17.028,3.596-22.953,2.146-24.583,1.469c0.056-0.178,0.126-0.36,0.2-0.502    c1.939-3.474,0.741-7.874-2.714-9.881c-3.491-2.027-7.963-0.84-9.99,2.65c-2.349,4.046-3.686,10.712,0.275,16.188    C10.435,64.41,23.088,65.801,44.789,61.217z"/>
            <path d="M42.353,97.759c40.683-8.594,77.066-5.53,83.257-0.516c-0.637,3.554,1.438,7.111,4.969,8.242    c0.74,0.236,1.491,0.352,2.229,0.352c3.094,0,5.966-1.979,6.96-5.082c1.457-4.557,0.436-9.229-2.808-12.813    c-12.991-14.383-65.936-11.175-97.629-4.479c-17.028,3.596-22.953,2.146-24.583,1.469c0.056-0.178,0.126-0.36,0.2-0.502    c1.939-3.474,0.741-7.873-2.714-9.881c-3.488-2.026-7.961-0.838-9.99,2.649c-2.349,4.047-3.686,10.712,0.275,16.188    C7.996,100.951,20.652,102.344,42.353,97.759z"/></g></g>
    <g></g>
    <g></g>
    <g></g>
    <g></g>
    <g></g>
    <g></g>
    <g></g>
    <g></g>
    <g></g>
    <g></g>
    <g></g>
    <g></g>
    <g></g>
    <g></g>
    <g></g></svg>