<!DOCTYPE svg PUBLIC "-//W3C//DTD SVG 1.1//EN"
    "http://www.w3.org/Graphics/SVG/1.1/DTD/svg11.dtd" >
<!-- Generator: Adobe Illustrator 16.0.0, SVG Export Plug-In . SVG Version:
6.00 Build 0) -->
<svg contentScriptType="text/ecmascript" zoomAndPan="magnify"
     xmlns:xlink="http://www.w3.org/1999/xlink" contentStyleType="text/css"
     id="Capa_1"
     style="enable-background:new 0 0 133.986 133.986;fill:#2068a0;padding: 0px"
     version="1.1" xml:space="preserve" width="16"
     preserveAspectRatio="xMidYMid meet" viewBox="0 0 133.986 133.986"
     height="16" xmlns="http://www.w3.org/2000/svg" x="0px" y="0px">
    <g>
        <g>
            <path d="M51.158,14.617c4.037,0,7.309-3.271,7.309-7.308S55.196,0,51.158,0H36.542c-4.037,0-7.309,3.272-7.309,7.309V126.68    c0,4.034,3.271,7.307,7.309,7.307h14.616c4.037,0,7.309-3.271,7.309-7.307c0-4.037-3.271-7.31-7.309-7.31h-7.308V14.617H51.158z"/>
            <path d="M82.829,119.37c-4.037,0-7.31,3.271-7.31,7.31c0,4.034,3.272,7.307,7.31,7.307h14.615c4.037,0,7.309-3.271,7.309-7.307    V7.309c0-4.037-3.271-7.309-7.309-7.309H82.829c-4.037,0-7.31,3.272-7.31,7.309s3.272,7.308,7.31,7.308h7.307V119.37H82.829z"/></g></g>
    <g></g>
    <g></g>
    <g></g>
    <g></g>
    <g></g>
    <g></g>
    <g></g>
    <g></g>
    <g></g>
    <g></g>
    <g></g>
    <g></g>
    <g></g>
    <g></g>
    <g></g></svg>