<!DOCTYPE svg PUBLIC "-//W3C//DTD SVG 1.1//EN"
    "http://www.w3.org/Graphics/SVG/1.1/DTD/svg11.dtd" >
<!-- Generator: Adobe Illustrator 16.0.0, SVG Export Plug-In . SVG Version:
6.00 Build 0) -->
<svg contentScriptType="text/ecmascript" zoomAndPan="magnify"
     xmlns:xlink="http://www.w3.org/1999/xlink" contentStyleType="text/css"
     id="Capa_1"
     style="enable-background:new 0 0 116.936 116.936;fill:#2068a0;padding: 0px"
     version="1.1" width="16" xml:space="preserve"
     preserveAspectRatio="xMidYMid meet" viewBox="0 0 116.936 116.936"
     height="16" xmlns="http://www.w3.org/2000/svg" x="0px" y="0px">
    <g>
        <g>
            <path d="M23.144,102.317c-4.037,0-7.308,3.271-7.308,7.31c0,4.037,3.271,7.309,7.308,7.309h70.647    c4.037,0,7.309-3.271,7.309-7.309V60.903V7.309C101.1,3.272,97.829,0,93.791,0H23.144c-4.037,0-7.308,3.271-7.308,7.309    c0,4.036,3.271,7.309,7.308,7.309h63.338v38.978h-56.03c-4.036,0-7.308,3.271-7.308,7.308s3.272,7.309,7.308,7.309h56.03v34.105    L23.144,102.317L23.144,102.317z"/></g></g>
    <g/>
    <g/>
    <g/>
    <g/>
    <g/>
    <g/>
    <g/>
    <g/>
    <g/>
    <g/>
    <g/>
    <g/>
    <g/>
    <g/>
    <g/></svg>