
<!-- Generator: Adobe Illustrator 16.0.0, SVG Export Plug-In . SVG Version:
6.00 Build 0) -->
<svg contentScriptType="text/ecmascript" zoomAndPan="magnify"
     xmlns:rdf="http://www.w3.org/1999/02/22-rdf-syntax-ns#"
     xmlns:xlink="http://www.w3.org/1999/xlink"
     xmlns:svg="http://www.w3.org/2000/svg" contentStyleType="text/css"
     id="Capa_1" sodipodi:docname="univ.svg"
     style="enable-background:new 0 0 121.805 121.804;fill:#2068a0;padding: 0px"
     version="1.1" xml:space="preserve" width="16"
     xmlns:sodipodi="http://sodipodi.sourceforge.net/DTD/sodipodi-0.dtd"
     xmlns:inkscape="http://www.inkscape.org/namespaces/inkscape"
     xmlns:dc="http://purl.org/dc/elements/1.1/"
     xmlns:cc="http://creativecommons.org/ns#"
     preserveAspectRatio="xMidYMid meet" inkscape:version="0.91 r13725"
     viewBox="0 0 121.805 121.804" height="16"
     xmlns="http://www.w3.org/2000/svg" x="0px" y="0px">
    <metadata id="metadata43">
        <rdf:RDF>
            <cc:Work rdf:about="">
                <dc:format>image/svg+xml</dc:format><dc:type rdf:resource="http://purl.org/dc/dcmitype/StillImage"/></cc:Work></rdf:RDF></metadata>
    <defs id="defs41"/>
    <sodipodi:namedview objecttolerance="10" bordercolor="#666666"
                        inkscape:window-height="1056" inkscape:zoom="5.4801878"
                        id="namedview39" gridtolerance="10"
                        inkscape:current-layer="Capa_1" inkscape:window-y="24"
                        inkscape:cy="49.518847" inkscape:window-x="0"
                        inkscape:cx="50.518874" showgrid="false"
                        guidetolerance="10" inkscape:pageopacity="0"
                        inkscape:pageshadow="2" inkscape:window-width="1920"
                        inkscape:window-maximized="1" borderopacity="1"
                        pagecolor="#ffffff"/>
    <path d="m 8.4959872,32.874511 c 1.4386253,0 2.6632928,0.49822 3.6597348,1.506886 0.986253,1.008664 1.484473,2.221108 1.484473,3.637321 0,1.416215 -0.49822,2.617444 -1.506884,3.614904 -1.008666,0.997458 -2.2211096,1.495679 -3.6373238,1.495679 -1.4162143,0 -2.6174434,-0.498221 -3.6149029,-1.495679 -0.997459,-0.99746 -1.495679,-2.198697 -1.495679,-3.614904 0,-1.416213 0.49822,-2.628648 1.495679,-3.637321 0.9974595,-1.008666 2.1986971,-1.506886 3.6149029,-1.506886 z m 4.6459878,15.036331 0,24.601344 c 0,2.186465 0.260825,3.591474 0.770259,4.192599 0.510445,0.61131 1.506885,0.962815 2.99136,1.053494 l 0,1.190024 -16.77038965,0 0,-1.190024 C 1.5045872,77.713419 2.5244577,77.30489 3.1928322,76.55705 3.6350156,76.047624 3.8499913,74.698651 3.8499913,72.512186 l 0,-18.130584 c 0,-2.187484 -0.2496188,-3.592492 -0.7590446,-4.203803 C 2.5804943,49.576675 1.5952672,49.225171 0.13320435,49.134491 l 0,-1.223649 13.00880565,0 z"
          id="path53" inkscape:connector-curvature="0"
          style="clip-rule:evenodd;fill-rule:evenodd;image-rendering:optimizeQuality;shape-rendering:geometricPrecision;text-rendering:geometricPrecision"
          class="fil0"/>
    <path d="m 50.112991,33.408728 0,35.72824 c 0,2.413671 0.06824,3.841086 0.203769,4.283271 0.170155,0.725431 0.510454,1.269502 1.008666,1.621008 0.498221,0.350487 1.371383,0.577687 2.606238,0.668359 l 0,1.087132 -13.110682,2.561406 0,-4.918014 c -1.575156,1.904244 -2.968949,3.207362 -4.203804,3.886945 -1.22365,0.690769 -2.617444,1.031077 -4.158973,1.031077 -3.965388,0 -7.093276,-1.767714 -9.393867,-5.31435 -1.869603,-2.878268 -2.798802,-6.4025 -2.798802,-10.583867 0,-3.342872 0.577694,-6.334231 1.734092,-8.986274 1.144175,-2.639855 2.730535,-4.633764 4.725461,-5.993933 2.005115,-1.348973 4.157955,-2.017346 6.458537,-2.017346 1.484474,0 2.798803,0.283244 3.955202,0.861956 1.144176,0.577695 2.37903,1.586361 3.682145,3.01378 l 0,-9.360226 c 0,-2.367824 -0.101885,-3.795245 -0.29445,-4.283277 -0.272031,-0.634749 -0.668366,-1.110549 -1.20123,-1.427419 -0.532864,-0.305657 -1.529305,-0.464597 -2.991359,-0.464597 l 0,-1.393793 13.779048,0 z M 40.820999,54.46242 c -1.643414,-3.150307 -3.637324,-4.713228 -6.005139,-4.713228 -0.827314,0 -1.496697,0.214975 -2.028543,0.65716 -0.816109,0.690785 -1.484475,1.892014 -2.006133,3.626108 -0.520639,1.721869 -0.781465,4.362742 -0.781465,7.931796 0,3.920559 0.283244,6.810044 0.86094,8.690824 0.577686,1.881824 1.360176,3.252193 2.356618,4.090715 0.510444,0.419774 1.201229,0.623545 2.096803,0.623545 1.937864,0 3.785058,-1.518103 5.506919,-4.577731 l 0,-16.329239 z"
          id="path43" inkscape:connector-curvature="0"
          style="clip-rule:evenodd;fill-rule:evenodd;image-rendering:optimizeQuality;shape-rendering:geometricPrecision;text-rendering:geometricPrecision"
          class="fil0"/>
    <path d="m 83.818571,61.479612 -17.020028,0 c 0.192565,4.113124 1.291908,7.376525 3.286836,9.76782 1.518099,1.835974 3.354078,2.753971 5.506918,2.753971 1.325533,0 2.537967,-0.373925 3.614904,-1.110553 1.087115,-0.747842 2.243513,-2.085595 3.489586,-4.000026 l 1.121758,0.725422 c -1.677034,3.433544 -3.535435,5.858429 -5.575181,7.285844 -2.027525,1.427415 -4.385162,2.141633 -7.070865,2.141633 -4.600138,0 -8.090745,-1.767716 -10.458525,-5.314351 -1.904248,-2.855857 -2.855858,-6.391286 -2.855858,-10.617509 0,-5.178851 1.405,-9.303205 4.203803,-12.373995 2.798802,-3.059628 6.08563,-4.589951 9.847266,-4.589951 3.139102,0 5.869635,1.280703 8.181411,3.864522 2.311791,2.583818 3.557847,6.4025 3.727993,11.467199 z m -8.15798,-2.221109 c 0,-3.569053 -0.193583,-6.005137 -0.589919,-7.342905 -0.385129,-1.325534 -0.985235,-2.334199 -1.801336,-3.013778 -0.464594,-0.396335 -1.088138,-0.601123 -1.858397,-0.601123 -1.156399,0 -2.096804,0.567497 -2.821215,1.700467 -1.303114,1.960284 -1.961301,4.668398 -1.961301,8.090745 l 0,1.166594 9.032168,0 z"
          id="path45" inkscape:connector-curvature="0"
          style="clip-rule:evenodd;fill-rule:evenodd;image-rendering:optimizeQuality;shape-rendering:geometricPrecision;text-rendering:geometricPrecision"
          class="fil0"/>
    <path d="m 100.90834,48.57034 0,4.011238 c 1.59756,-1.721871 3.12788,-2.980154 4.58894,-3.761619 1.46204,-0.793689 3.02599,-1.178818 4.71423,-1.178818 2.00613,0 3.68318,0.555275 5.0087,1.677038 1.32553,1.11055 2.2099,2.504353 2.65107,4.158973 0.36272,1.269497 0.53286,3.694376 0.53286,7.274636 l 0,12.079581 c 0,2.391251 0.21498,3.886944 0.64595,4.464622 0.43099,0.588902 1.33675,0.963846 2.70812,1.121769 l 0,1.190027 -15.70564,0 0,-1.190027 c 1.17883,-0.157923 2.01734,-0.645958 2.52677,-1.46206 0.35151,-0.554258 0.53286,-1.925645 0.53286,-4.124331 l 0,-13.801477 c 0,-2.550202 -0.10185,-4.158972 -0.29444,-4.816132 -0.20377,-0.668375 -0.54407,-1.178819 -1.01989,-1.541529 -0.47581,-0.373924 -0.99746,-0.555275 -1.57516,-0.555275 -1.9032,0 -3.67092,1.360179 -5.31434,4.090713 l 0,16.623657 c 0,2.322991 0.21497,3.796263 0.64596,4.419791 0.44218,0.622519 1.23486,1.008668 2.41366,1.166599 l 0,1.190027 -15.705637,0 0,-1.190027 c 1.303118,-0.135511 2.232321,-0.555276 2.787588,-1.268483 0.373926,-0.488026 0.566482,-1.926656 0.566482,-4.317907 l 0,-17.529418 c 0,-2.346432 -0.214977,-3.796263 -0.645956,-4.373949 -0.430963,-0.578712 -1.336736,-0.952628 -2.708122,-1.133987 l 0,-1.223649 12.646065,0 z"
          id="path63" inkscape:connector-curvature="0"
          style="clip-rule:evenodd;fill-rule:evenodd;image-rendering:optimizeQuality;shape-rendering:geometricPrecision;text-rendering:geometricPrecision"
          class="fil0"/></svg>