<!DOCTYPE svg PUBLIC "-//W3C//DTD SVG 1.1//EN"
    "http://www.w3.org/Graphics/SVG/1.1/DTD/svg11.dtd" >
<!-- Generator: Adobe Illustrator 16.0.0, SVG Export Plug-In . SVG Version:
6.00 Build 0) -->
<svg contentScriptType="text/ecmascript" zoomAndPan="magnify"
     xmlns:xlink="http://www.w3.org/1999/xlink" contentStyleType="text/css"
     id="Capa_1"
     style="enable-background:new 0 0 144.055 144.055;fill:#2068a0;padding: 0px"
     version="1.1" xml:space="preserve" width="16"
     preserveAspectRatio="xMidYMid meet" viewBox="0 0 144.055 144.055"
     height="16" xmlns="http://www.w3.org/2000/svg" x="0px" y="0px">
    <g>
        <g>
            <path d="M144.029,72.028c0-0.027,0-0.084,0-0.111h-0.027c-0.027-2.117-0.88-4.125-2.365-5.609L95.186,19.829    c-3.162-3.163-8.332-3.163-11.496,0c-3.162,3.163-3.162,8.333,0,11.496l17.492,17.491H42.875l17.491-17.491    c3.163-3.163,3.163-8.333,0-11.496s-8.333-3.163-11.496,0L2.392,66.308c-1.485,1.485-2.31,3.493-2.365,5.609H0    c0,0.056,0,0.084,0,0.139c0,0.027,0,0.083,0,0.109h0.027c0.028,2.091,0.88,4.125,2.365,5.611l46.451,46.45    c3.163,3.163,8.333,3.163,11.496,0c3.163-3.163,3.163-8.333,0-11.495L42.875,95.239h58.305l-17.464,17.492    c-3.163,3.162-3.163,8.332,0,11.495s8.333,3.163,11.496,0l46.451-46.45c1.485-1.486,2.31-3.521,2.364-5.611h0.027    C144.029,72.11,144.029,72.083,144.029,72.028z M20.599,71.917c2.255-1.814,8.196-7.205,9.158-7.782h84.515l9.021,7.782    l0.33,0.248l0.688,0.578l-9.982,8.607H30.225c-0.138,0-0.303,0.027-0.44,0.055l-10.286-8.689c0,0,0.33-0.191,0.798-0.577    L20.599,71.917z"/></g></g>
    <g></g>
    <g></g>
    <g></g>
    <g></g>
    <g></g>
    <g></g>
    <g></g>
    <g></g>
    <g></g>
    <g></g>
    <g></g>
    <g></g>
    <g></g>
    <g></g>
    <g></g></svg>