
<!-- Generator: Adobe Illustrator 16.0.0, SVG Export Plug-In . SVG Version:
6.00 Build 0) -->
<svg contentScriptType="text/ecmascript" zoomAndPan="magnify"
     xmlns:rdf="http://www.w3.org/1999/02/22-rdf-syntax-ns#"
     xmlns:xlink="http://www.w3.org/1999/xlink"
     xmlns:svg="http://www.w3.org/2000/svg" contentStyleType="text/css"
     id="Capa_1" sodipodi:docname="Implies (copy).svg"
     style="enable-background:new 0 0 121.698 121.698;fill:#2068a0;padding: 0px"
     version="1.1" xml:space="preserve" width="16"
     xmlns:sodipodi="http://sodipodi.sourceforge.net/DTD/sodipodi-0.dtd"
     xmlns:inkscape="http://www.inkscape.org/namespaces/inkscape"
     xmlns:dc="http://purl.org/dc/elements/1.1/"
     xmlns:cc="http://creativecommons.org/ns#"
     preserveAspectRatio="xMidYMid meet" inkscape:version="0.91 r13725"
     viewBox="0 0 121.698 121.698" height="16"
     xmlns="http://www.w3.org/2000/svg" x="0px" y="0px">
    <metadata id="metadata41">
        <rdf:RDF>
            <cc:Work rdf:about="">
                <dc:format>image/svg+xml</dc:format><dc:type rdf:resource="http://purl.org/dc/dcmitype/StillImage"/></cc:Work></rdf:RDF></metadata>
    <defs id="defs39"/>
    <sodipodi:namedview objecttolerance="10" bordercolor="#666666"
                        inkscape:window-height="1056" inkscape:zoom="1.9392266"
                        id="namedview37" gridtolerance="10"
                        inkscape:current-layer="Capa_1" inkscape:window-y="24"
                        inkscape:cy="60.848999" inkscape:window-x="0"
                        inkscape:cx="-0.51566948" showgrid="false"
                        guidetolerance="10" inkscape:pageopacity="0"
                        inkscape:pageshadow="2" inkscape:window-width="1920"
                        inkscape:window-maximized="1" borderopacity="1"
                        pagecolor="#ffffff"/>
    <g id="g7"/>
    <g id="g9"/>
    <g id="g11"/>
    <g id="g13"/>
    <g id="g15"/>
    <g id="g17"/>
    <g id="g19"/>
    <g id="g21"/>
    <g id="g23"/>
    <g id="g25"/>
    <g id="g27"/>
    <g id="g29"/>
    <g id="g31"/>
    <g id="g33"/>
    <g id="g35"/>
    <g id="g3"
       transform="matrix(0.83935751,0,0,0.83935751,0.61846412,0.90784592)">
        <g id="g5">
            <path id="path7"
                  d="m 144.029,72.028 c 0,-0.027 0,-0.084 0,-0.111 l -0.027,0 c -0.027,-2.117 -0.88,-4.125 -2.365,-5.609 L 95.186,19.829 c -3.162,-3.163 -8.332,-3.163 -11.496,0 -3.162,3.163 -3.162,8.333 0,11.496 l 17.492,17.491 -58.307,0 17.491,-17.491 c 3.163,-3.163 3.163,-8.333 0,-11.496 -3.163,-3.163 -8.333,-3.163 -11.496,0 L 2.392,66.308 c -1.485,1.485 -2.31,3.493 -2.365,5.609 l -0.027,0 c 0,0.056 0,0.084 0,0.139 0,0.027 0,0.083 0,0.109 l 0.027,0 c 0.028,2.091 0.88,4.125 2.365,5.611 l 46.451,46.45 c 3.163,3.163 8.333,3.163 11.496,0 3.163,-3.163 3.163,-8.333 0,-11.495 l -17.464,-17.492 58.305,0 -17.464,17.492 c -3.163,3.162 -3.163,8.332 0,11.495 3.163,3.163 8.333,3.163 11.496,0 l 46.451,-46.45 c 1.485,-1.486 2.31,-3.521 2.364,-5.611 l 0.027,0 c -0.025,-0.055 -0.025,-0.082 -0.025,-0.137 z M 20.599,71.917 c 2.255,-1.814 8.196,-7.205 9.158,-7.782 l 84.515,0 9.021,7.782 0.33,0.248 0.688,0.578 -9.982,8.607 -84.104,0 c -0.138,0 -0.303,0.027 -0.44,0.055 L 19.499,72.716 c 0,0 0.33,-0.191 0.798,-0.577 l 0.302,-0.222 z"
                  inkscape:connector-curvature="0"/></g></g></svg>