<!DOCTYPE svg PUBLIC "-//W3C//DTD SVG 1.1//EN"
    "http://www.w3.org/Graphics/SVG/1.1/DTD/svg11.dtd" >
<!-- Generator: Adobe Illustrator 16.0.0, SVG Export Plug-In . SVG Version:
6.00 Build 0) -->
<svg contentScriptType="text/ecmascript" zoomAndPan="magnify"
     xmlns:xlink="http://www.w3.org/1999/xlink" contentStyleType="text/css"
     id="Capa_1"
     style="enable-background:new 0 0 121.698 121.698;fill:#2068a0;padding: 0px"
     version="1.1" width="16" xml:space="preserve"
     preserveAspectRatio="xMidYMid meet" viewBox="0 0 121.698 121.698"
     height="16" xmlns="http://www.w3.org/2000/svg" x="0px" y="0px">
    <g>
        <path d="M102.666,60.918l-7.646,7.124H8.113C3.63,68.042,0,71.672,0,76.127c0,4.456,3.63,8.086,8.113,8.086h70.819l-17.437,17.382   c-3.163,3.161-3.163,8.277,0,11.439c3.162,3.163,8.306,3.163,11.468,0l46.369-46.203c1.54-1.513,2.393-3.796,2.365-5.996   c0.026-2.199-0.825-4.291-2.365-5.831L72.963,8.665c-3.162-3.163-8.307-3.163-11.468,0c-3.163,3.163-3.163,8.306,0,11.468   l17.437,17.437H8.113C3.63,37.569,0,41.2,0,45.683s3.63,8.113,8.113,8.113l86.879-0.083L102.666,60.918z"/></g>
    <g/>
    <g/>
    <g/>
    <g/>
    <g/>
    <g/>
    <g/>
    <g/>
    <g/>
    <g/>
    <g/>
    <g/>
    <g/>
    <g/>
    <g/></svg>