<!DOCTYPE svg PUBLIC "-//W3C//DTD SVG 1.1//EN"
    "http://www.w3.org/Graphics/SVG/1.1/DTD/svg11.dtd" >
<!-- Generator: Adobe Illustrator 16.0.0, SVG Export Plug-In . SVG Version:
6.00 Build 0) -->
<svg contentScriptType="text/ecmascript" zoomAndPan="magnify"
     xmlns:xlink="http://www.w3.org/1999/xlink" contentStyleType="text/css"
     id="Capa_1"
     style="enable-background:new 0 0 121.805 121.804;fill:#2068a0;padding: 0px"
     version="1.1" xml:space="preserve" width="16"
     preserveAspectRatio="xMidYMid meet" viewBox="0 0 121.805 121.804"
     height="16" xmlns="http://www.w3.org/2000/svg" x="0px" y="0px">
    <g>
        <g>
            <path d="M44.391,29.233h70.105c4.037,0,7.309-3.271,7.309-7.308s-3.271-7.308-7.309-7.308H44.391C19.913,14.617,0,32.345,0,54.135    v6.767v1.896c0,23.23,21.16,44.39,44.391,44.39h70.105c4.037,0,7.309-3.271,7.309-7.308c0-4.037-3.271-7.309-7.309-7.309H44.391    c-13.208,0-26.193-11.398-29.143-24.361h70.016c4.037,0,7.31-3.271,7.31-7.309c0-4.036-3.272-7.308-7.31-7.308H14.651    C15.017,38.536,30.245,29.233,44.391,29.233z"/></g></g>
    <g></g>
    <g></g>
    <g></g>
    <g></g>
    <g></g>
    <g></g>
    <g></g>
    <g></g>
    <g></g>
    <g></g>
    <g></g>
    <g></g>
    <g></g>
    <g></g>
    <g></g></svg>