<!DOCTYPE svg PUBLIC "-//W3C//DTD SVG 1.1//EN"
    "http://www.w3.org/Graphics/SVG/1.1/DTD/svg11.dtd" >
<!-- Generator: Adobe Illustrator 16.0.0, SVG Export Plug-In . SVG Version:
6.00 Build 0) -->
<svg contentScriptType="text/ecmascript" zoomAndPan="magnify"
     xmlns:xlink="http://www.w3.org/1999/xlink" contentStyleType="text/css"
     id="Capa_1"
     style="enable-background:new 0 0 123.988 123.989;fill:#2068a0;padding: 0px"
     version="1.1" xml:space="preserve" width="16"
     preserveAspectRatio="xMidYMid meet" viewBox="0 0 123.988 123.989"
     height="16" xmlns="http://www.w3.org/2000/svg" x="0px" y="0px">
    <g>
        <path d="M75.604,87.266c17.666,0,33.164-15.999,33.164-34.24v-6.578c0-10.265-5.207-18.981-13.468-24.308l8.454-12.387   c1.943-2.844,1.21-6.725-1.634-8.667c-2.849-1.942-6.728-1.208-8.666,1.636L83.443,17.386c-2.502-0.507-5.115-0.802-7.842-0.802   H21.457c-3.444,0-6.236,2.792-6.236,6.236c0,3.444,2.792,6.236,6.236,6.236H75.48L44.268,74.792H21.457   c-3.444,0-6.236,2.792-6.236,6.235c0,3.444,2.792,6.236,6.236,6.236h14.298L31.5,93.5H21.457c-3.444,0-6.236,2.792-6.236,6.235   c0,3.444,2.792,6.236,6.236,6.236h1.528l-5.64,8.267c-1.942,2.846-1.21,6.725,1.636,8.666c1.074,0.735,2.297,1.085,3.509,1.085   c1.992,0,3.95-0.951,5.158-2.722l10.439-15.294h62.364c3.443,0,6.236-2.792,6.236-6.235c0-3.444-2.793-6.236-6.236-6.236H46.6   l4.255-6.236L75.604,87.266L75.604,87.266z M88.314,32.376c4.657,2.804,7.979,7.43,7.979,14.071v6.578   c0,11.393-9.86,21.769-20.688,21.769H59.369L88.314,32.376z"/></g>
    <g></g>
    <g></g>
    <g></g>
    <g></g>
    <g></g>
    <g></g>
    <g></g>
    <g></g>
    <g></g>
    <g></g>
    <g></g>
    <g></g>
    <g></g>
    <g></g>
    <g></g></svg>