<!DOCTYPE svg PUBLIC "-//W3C//DTD SVG 1.1//EN"
    "http://www.w3.org/Graphics/SVG/1.1/DTD/svg11.dtd" >
<!-- Generator: Adobe Illustrator 16.0.0, SVG Export Plug-In . SVG Version:
6.00 Build 0) -->
<svg contentScriptType="text/ecmascript" zoomAndPan="magnify"
     xmlns:xlink="http://www.w3.org/1999/xlink" contentStyleType="text/css"
     id="Capa_1"
     style="enable-background:new 0 0 113.75 113.749;fill:#2068a0;padding: 0px"
     version="1.1" xml:space="preserve" width="16"
     preserveAspectRatio="xMidYMid meet" viewBox="0 0 113.75 113.749"
     height="16" xmlns="http://www.w3.org/2000/svg" x="0px" y="0px">
    <g>
        <path d="M85.023,81.518h10.836V70.131H81.255l-10.891-34.02c9.764-19.994-8.608-26.21-8.608-26.21V0H50.398v9.901   c0,0-18.564,8.36-8.003,26.21l-10.313,34.02H18.166v11.357h10.148L17.89,113.693h5.775l2.173-5.691h9.406l5.775-28.438h9.351v7.59   h9.489v-7.59h10.836l7.397,28.491h9.405l2.173,5.693h5.774L85.023,81.518z M57.961,72.027v-9.433l-5.692,0.027v9.434h-7.371   l9.158-36.551c-3.465-0.88-6.05-4.785-6.05-8.525c0-4.429,3.575-8.389,8.003-8.389c4.428,0,8.003,3.383,8.003,7.811   c0,3.905-2.806,8.581-6.49,9.296l10.506,36.33H57.961z"/></g>
    <g></g>
    <g></g>
    <g></g>
    <g></g>
    <g></g>
    <g></g>
    <g></g>
    <g></g>
    <g></g>
    <g></g>
    <g></g>
    <g></g>
    <g></g>
    <g></g>
    <g></g></svg>