<!DOCTYPE svg PUBLIC "-//W3C//DTD SVG 1.1//EN"
    "http://www.w3.org/Graphics/SVG/1.1/DTD/svg11.dtd" >
<!-- Generator: Adobe Illustrator 16.0.0, SVG Export Plug-In . SVG Version:
6.00 Build 0) -->
<svg contentScriptType="text/ecmascript" zoomAndPan="magnify"
     xmlns:xlink="http://www.w3.org/1999/xlink" contentStyleType="text/css"
     id="Capa_1"
     style="enable-background:new 0 0 143.811 143.812;fill:#2068a0;padding: 0px"
     version="1.1" xml:space="preserve" width="16"
     preserveAspectRatio="xMidYMid meet" viewBox="0 0 143.811 143.812"
     height="16" xmlns="http://www.w3.org/2000/svg" x="0px" y="0px">
    <g>
        <g>
            <path d="M61.229,2.141c-2.855-2.855-7.479-2.855-10.334,0c-38.468,38.468-38.468,101.06,0,139.527    c1.428,1.429,3.298,2.143,5.167,2.143s3.739-0.714,5.167-2.14c2.855-2.854,2.855-7.481,0-10.337    c-32.768-32.771-32.768-86.089,0-118.859C64.083,9.623,64.083,4.996,61.229,2.141z"/>
            <path d="M82.583,141.673c1.427,1.425,3.298,2.139,5.166,2.139c1.869,0,3.739-0.714,5.167-2.143    c38.469-38.468,38.469-101.059,0-139.527c-2.854-2.855-7.479-2.855-10.333,0c-2.854,2.853-2.854,7.481,0,10.334    c32.769,32.77,32.769,86.087,0,118.859C79.729,134.188,79.729,138.816,82.583,141.673z"/></g></g>
    <g></g>
    <g></g>
    <g></g>
    <g></g>
    <g></g>
    <g></g>
    <g></g>
    <g></g>
    <g></g>
    <g></g>
    <g></g>
    <g></g>
    <g></g>
    <g></g>
    <g></g></svg>