<!DOCTYPE svg PUBLIC "-//W3C//DTD SVG 1.1//EN"
    "http://www.w3.org/Graphics/SVG/1.1/DTD/svg11.dtd" >
<!-- Generator: Adobe Illustrator 16.0.0, SVG Export Plug-In . SVG Version:
6.00 Build 0) -->
<svg contentScriptType="text/ecmascript" zoomAndPan="magnify"
     xmlns:xlink="http://www.w3.org/1999/xlink" contentStyleType="text/css"
     id="Capa_1"
     style="enable-background:new 0 0 93.562 93.562;fill:#2068a0;padding: 0px"
     version="1.1" width="16" xml:space="preserve"
     preserveAspectRatio="xMidYMid meet" viewBox="0 0 93.562 93.562" height="16"
     xmlns="http://www.w3.org/2000/svg" x="0px" y="0px">
    <g>
        <path d="M87.952,41.17l-36.386,0.11V5.61c0-3.108-2.502-5.61-5.61-5.61c-3.107,0-5.61,2.502-5.61,5.61l0.11,35.561H5.61   c-3.108,0-5.61,2.502-5.61,5.61c0,3.107,2.502,5.609,5.61,5.609h34.791v35.562c0,3.106,2.502,5.61,5.61,5.61   c3.108,0,5.61-2.504,5.61-5.61V52.391h36.331c3.108,0,5.61-2.504,5.61-5.61C93.562,43.672,91.032,41.17,87.952,41.17z"/></g>
    <g/>
    <g/>
    <g/>
    <g/>
    <g/>
    <g/>
    <g/>
    <g/>
    <g/>
    <g/>
    <g/>
    <g/>
    <g/>
    <g/>
    <g/></svg>