<!DOCTYPE svg PUBLIC "-//W3C//DTD SVG 1.1//EN"
    "http://www.w3.org/Graphics/SVG/1.1/DTD/svg11.dtd" >
<!-- Generator: Adobe Illustrator 16.0.0, SVG Export Plug-In . SVG Version:
6.00 Build 0) -->
<svg contentScriptType="text/ecmascript" zoomAndPan="magnify"
     xmlns:xlink="http://www.w3.org/1999/xlink" contentStyleType="text/css"
     id="Capa_1"
     style="enable-background:new 0 0 109.129 109.129;fill:#2068a0;padding: 0px"
     version="1.1" xml:space="preserve" width="16"
     preserveAspectRatio="xMidYMid meet" viewBox="0 0 109.129 109.129"
     height="16" xmlns="http://www.w3.org/2000/svg" x="0px" y="0px">
    <g>
        <path d="M94.95,96.037h-8.719V13.091h8.719c3.631,0,6.545-2.943,6.545-6.546c0-3.63-2.941-6.545-6.545-6.545H14.177   c-3.63,0-6.545,2.943-6.545,6.545c0,3.63,2.943,6.546,6.545,6.546h8.718v82.946h-8.718c-3.63,0-6.545,2.943-6.545,6.547   c0,3.629,2.943,6.545,6.545,6.545H44.76c3.63,0,6.546-2.943,6.546-6.545c0-3.631-2.943-6.547-6.546-6.547h-8.718V13.091h37.101   v82.946h-8.746c-3.631,0-6.545,2.943-6.545,6.547c0,3.629,2.94,6.545,6.545,6.545h30.556c3.631,0,6.545-2.943,6.545-6.545   C101.495,98.98,98.581,96.037,94.95,96.037z"/></g>
    <g></g>
    <g></g>
    <g></g>
    <g></g>
    <g></g>
    <g></g>
    <g></g>
    <g></g>
    <g></g>
    <g></g>
    <g></g>
    <g></g>
    <g></g>
    <g></g>
    <g></g></svg>