<!DOCTYPE svg PUBLIC "-//W3C//DTD SVG 1.1//EN"
    "http://www.w3.org/Graphics/SVG/1.1/DTD/svg11.dtd" >
<!-- Generator: Adobe Illustrator 16.0.0, SVG Export Plug-In . SVG Version:
6.00 Build 0) -->
<svg contentScriptType="text/ecmascript" zoomAndPan="magnify"
     xmlns:xlink="http://www.w3.org/1999/xlink" contentStyleType="text/css"
     id="Capa_1"
     style="enable-background:new 0 0 140.417 140.417;fill:#2068a0;padding: 0px"
     version="1.1" xml:space="preserve" width="16"
     preserveAspectRatio="xMidYMid meet" viewBox="0 0 140.417 140.417"
     height="16" xmlns="http://www.w3.org/2000/svg" x="0px" y="0px">
    <g>
        <g>
            <path d="M42.354,78.27c40.685-8.592,77.067-5.53,83.255-0.516c-0.636,3.554,1.439,7.111,4.97,8.242    c0.741,0.236,1.491,0.351,2.229,0.351c3.094,0,5.965-1.979,6.959-5.082c1.457-4.556,0.437-9.228-2.807-12.812    c-12.994-14.383-65.938-11.175-97.629-4.48c-17.028,3.596-22.953,2.146-24.583,1.469c0.056-0.178,0.126-0.36,0.2-0.502    c1.939-3.474,0.741-7.874-2.714-9.881c-3.491-2.024-7.961-0.84-9.99,2.65C-0.104,61.754-1.441,68.42,2.52,73.896    C8,81.462,20.653,82.856,42.354,78.27z"/></g></g>
    <g></g>
    <g></g>
    <g></g>
    <g></g>
    <g></g>
    <g></g>
    <g></g>
    <g></g>
    <g></g>
    <g></g>
    <g></g>
    <g></g>
    <g></g>
    <g></g>
    <g></g></svg>