
<!-- Generator: Adobe Illustrator 16.0.0, SVG Export Plug-In . SVG Version:
6.00 Build 0) -->
<svg contentScriptType="text/ecmascript" zoomAndPan="magnify"
     xmlns:rdf="http://www.w3.org/1999/02/22-rdf-syntax-ns#"
     xmlns:xlink="http://www.w3.org/1999/xlink"
     xmlns:svg="http://www.w3.org/2000/svg" contentStyleType="text/css"
     id="Capa_1" sodipodi:docname="Univ.svg"
     style="enable-background:new 0 0 121.805 121.804;fill:#2068a0;padding: 0px"
     version="1.1" xml:space="preserve" width="16"
     xmlns:sodipodi="http://sodipodi.sourceforge.net/DTD/sodipodi-0.dtd"
     xmlns:inkscape="http://www.inkscape.org/namespaces/inkscape"
     xmlns:dc="http://purl.org/dc/elements/1.1/"
     xmlns:cc="http://creativecommons.org/ns#"
     preserveAspectRatio="xMidYMid meet" inkscape:version="0.91 r13725"
     viewBox="0 0 121.805 121.804" height="16"
     xmlns="http://www.w3.org/2000/svg" x="0px" y="0px">
    <metadata id="metadata43">
        <rdf:RDF>
            <cc:Work rdf:about="">
                <dc:format>image/svg+xml</dc:format><dc:type rdf:resource="http://purl.org/dc/dcmitype/StillImage"/></cc:Work></rdf:RDF></metadata>
    <defs id="defs41"/>
    <sodipodi:namedview objecttolerance="10" bordercolor="#666666"
                        inkscape:window-height="1056" inkscape:zoom="5.4801878"
                        id="namedview39" gridtolerance="10"
                        inkscape:current-layer="Capa_1" inkscape:window-y="24"
                        inkscape:cy="49.518847" inkscape:window-x="0"
                        inkscape:cx="-10.871084" showgrid="false"
                        guidetolerance="10" inkscape:pageopacity="0"
                        inkscape:pageshadow="2" inkscape:window-width="1920"
                        inkscape:window-maximized="1" borderopacity="1"
                        pagecolor="#ffffff"/>
    <path d="m 30.172234,48.439175 0,24.218524 c 0,2.360307 0.214294,3.840074 0.655075,4.415929 0.44078,0.587033 1.332498,0.960786 2.688358,1.118207 l 0,1.18625 -12.617114,0 0,-4.134606 c -1.479762,1.762105 -2.948355,3.049918 -4.428118,3.85226 -1.479763,0.802342 -3.140309,1.20859 -4.969446,1.20859 -1.7397598,0 -3.2875743,-0.531165 -4.6424124,-1.603669 C 5.5027153,77.627142 4.5876437,76.373871 4.1245148,74.938793 3.6613935,73.504738 3.4237367,71.008326 3.4237367,67.427252 l 0,-12.277887 c 0,-2.338991 -0.2142935,-3.784216 -0.64289,-4.360071 C 2.3512365,50.212419 1.458505,49.839689 0.09248829,49.658906 l 0,-1.219766 12.60593471,0 0,21.145269 c 0,2.202887 0.101562,3.625781 0.315856,4.269678 0.203132,0.632737 0.531172,1.118207 0.994293,1.457427 0.451959,0.32805 0.970939,0.497656 1.570155,0.497656 0.790155,0 1.502103,-0.215309 2.146016,-0.632737 0.880547,-0.576877 1.942883,-1.728586 3.173819,-3.479529 l 0,-16.547505 c 0,-2.338991 -0.214293,-3.784216 -0.643905,-4.36007 -0.42961,-0.576876 -1.321327,-0.949605 -2.699528,-1.130389 l 0,-1.219765 12.617114,0 z"
          id="path77" inkscape:connector-curvature="0"
          style="clip-rule:evenodd;fill-rule:evenodd;image-rendering:optimizeQuality;shape-rendering:geometricPrecision;text-rendering:geometricPrecision"
          class="fil0"/>
    <path d="M 105.61238,79.519714 95.498391,56.000253 C 94.269395,53.165723 93.3156,51.371623 92.635028,50.618938 92.141861,50.054419 91.41789,49.678082 90.452254,49.477956 l 0,-1.195741 15.971816,0 0,1.195741 c -1.00904,0 -1.70047,0.189167 -2.06244,0.554563 -0.51487,0.475899 -0.76738,1.040419 -0.76738,1.682601 0,0.80843 0.47148,2.302867 1.4144,4.518118 l 4.9475,11.382928 3.94932,-9.83273 c 1.1412,-2.81262 1.71131,-4.794902 1.71131,-5.968738 0,-0.664082 -0.24067,-1.217643 -0.72398,-1.638793 -0.48231,-0.420153 -1.33847,-0.653129 -2.55561,-0.697932 l 0,-1.19574 9.8289,0 0,1.19574 c -0.94295,0.133414 -1.71131,0.487852 -2.31495,1.07427 -0.59179,0.587415 -1.49135,2.303862 -2.69863,5.160292 l -10.02614,23.807246 -1.51404,0 z"
          id="path79" inkscape:connector-curvature="0"
          style="clip-rule:evenodd;fill-rule:evenodd;image-rendering:optimizeQuality;shape-rendering:geometricPrecision;text-rendering:geometricPrecision"
          class="fil0"/>
    <path d="m 81.583665,33.435302 c 1.434063,0 2.654847,0.496639 3.64812,1.502103 0.983123,1.005463 1.479764,2.214059 1.479764,3.625778 0,1.411721 -0.496641,2.609138 -1.502104,3.603431 -1.005458,0.994293 -2.214057,1.490933 -3.62578,1.490933 -1.411715,0 -2.609136,-0.49664 -3.603423,-1.490933 -0.994297,-0.994293 -1.490937,-2.191719 -1.490937,-3.603431 0,-1.411719 0.49664,-2.620306 1.490937,-3.625778 0.994287,-1.005464 2.191716,-1.502103 3.603423,-1.502103 z m 4.631243,14.98861 0,24.523269 c 0,2.179526 0.259998,3.580076 0.767826,4.179292 0.508825,0.609371 1.502098,0.95976 2.981865,1.050151 l 0,1.186247 -16.717175,0 0,-1.186247 c 1.367035,-0.04471 2.383663,-0.45195 3.049918,-1.197417 0.440782,-0.507809 0.655076,-1.8525 0.655076,-4.032026 l 0,-18.073045 c 0,-2.18054 -0.248828,-3.58109 -0.756638,-4.190461 -0.508835,-0.599216 -1.490929,-0.949605 -2.948356,-1.039997 l 0,-1.219766 12.967518,0 z"
          id="path53-3" inkscape:connector-curvature="0"
          style="clip-rule:evenodd;fill-rule:evenodd;image-rendering:optimizeQuality;shape-rendering:geometricPrecision;text-rendering:geometricPrecision"
          class="fil0"/>
    <path d="m 49.587151,48.42393 0,3.998507 c 1.592495,-1.716405 3.117961,-2.970696 4.574369,-3.749681 1.457422,-0.79117 3.016398,-1.175077 4.699285,-1.175077 1.999766,0 3.671483,0.553513 4.992801,1.671717 1.321328,1.107025 2.202889,2.496405 2.642656,4.145773 0.361559,1.265469 0.531172,3.682652 0.531172,7.251549 l 0,12.041244 c 0,2.383664 0.214294,3.874606 0.643905,4.450458 0.429611,0.587032 1.332501,0.960784 2.699528,1.118204 l 0,1.186247 -15.6558,0 0,-1.186247 c 1.175077,-0.15742 2.010935,-0.643905 2.518745,-1.457423 0.350389,-0.552497 0.531172,-1.919529 0.531172,-4.111239 l 0,-13.757675 c 0,-2.542108 -0.101561,-4.145773 -0.293516,-4.800848 -0.203123,-0.666252 -0.542342,-1.175077 -1.016641,-1.536636 -0.4743,-0.372737 -0.994294,-0.553513 -1.570155,-0.553513 -1.89718,0 -3.659289,1.355862 -5.297487,4.07773 l 0,16.570899 c 0,2.315621 0.214294,3.784214 0.643905,4.40577 0.44078,0.620541 1.230936,1.005463 2.406013,1.162892 l 0,1.186247 -15.655801,0 0,-1.186247 c 1.298979,-0.13508 2.225229,-0.553512 2.778742,-1.264454 0.372737,-0.486484 0.564682,-1.920544 0.564682,-4.304208 l 0,-17.473786 c 0,-2.338984 -0.214293,-3.784214 -0.643904,-4.360066 -0.429602,-0.576876 -1.332498,-0.949605 -2.699529,-1.130389 l 0,-1.219766 12.605935,0 z"
          id="path63-6" inkscape:connector-curvature="0"
          style="clip-rule:evenodd;fill-rule:evenodd;image-rendering:optimizeQuality;shape-rendering:geometricPrecision;text-rendering:geometricPrecision"
          class="fil0"/></svg>