
<!-- Generator: Adobe Illustrator 16.0.0, SVG Export Plug-In . SVG Version:
6.00 Build 0) -->
<svg contentScriptType="text/ecmascript" zoomAndPan="magnify"
     xmlns:rdf="http://www.w3.org/1999/02/22-rdf-syntax-ns#"
     xmlns:xlink="http://www.w3.org/1999/xlink"
     xmlns:svg="http://www.w3.org/2000/svg" contentStyleType="text/css"
     id="Capa_1" sodipodi:docname="no.svg"
     style="enable-background:new 0 0 121.805 121.804;fill:#2068a0;padding: 0px"
     version="1.1" xml:space="preserve" width="16"
     xmlns:sodipodi="http://sodipodi.sourceforge.net/DTD/sodipodi-0.dtd"
     xmlns:inkscape="http://www.inkscape.org/namespaces/inkscape"
     xmlns:dc="http://purl.org/dc/elements/1.1/"
     xmlns:cc="http://creativecommons.org/ns#"
     preserveAspectRatio="xMidYMid meet" inkscape:version="0.91 r13725"
     viewBox="0 0 121.805 121.804" height="16"
     xmlns="http://www.w3.org/2000/svg" x="0px" y="0px">
    <metadata id="metadata43">
        <rdf:RDF>
            <cc:Work rdf:about="">
                <dc:format>image/svg+xml</dc:format><dc:type rdf:resource="http://purl.org/dc/dcmitype/StillImage"/></cc:Work></rdf:RDF></metadata>
    <defs id="defs41"/>
    <sodipodi:namedview objecttolerance="10" bordercolor="#666666"
                        inkscape:window-height="1056" inkscape:zoom="5.4801878"
                        id="namedview39" gridtolerance="10"
                        inkscape:current-layer="Capa_1" inkscape:window-y="24"
                        inkscape:cy="49.518847" inkscape:window-x="0"
                        inkscape:cx="7.9831232" showgrid="false"
                        guidetolerance="10" inkscape:pageopacity="0"
                        inkscape:pageshadow="2" inkscape:window-width="1920"
                        inkscape:window-maximized="1" borderopacity="1"
                        pagecolor="#ffffff"/>
    <path d="m 13.709488,50.467845 0,4.211023 c 1.717688,-1.807631 3.363085,-3.128585 4.933987,-3.948971 1.572004,-0.833221 3.253537,-1.237532 5.068732,-1.237532 2.156977,0 3.960115,0.582932 5.385316,1.760566 1.42521,1.165864 2.376074,2.629086 2.850414,4.366116 0.38998,1.332727 0.57293,3.87838 0.57293,7.636959 l 0,12.681215 c 0,2.51036 0.23114,4.080538 0.69453,4.687 0.46339,0.618232 1.43725,1.01185 2.91175,1.177637 l 0,1.249289 -16.886605,0 0,-1.249289 c 1.267461,-0.165787 2.169025,-0.678129 2.716758,-1.534887 0.377937,-0.581865 0.572933,-2.021546 0.572933,-4.32975 l 0,-14.488873 c 0,-2.677217 -0.109546,-4.366114 -0.316591,-5.056005 -0.219094,-0.701665 -0.584982,-1.237531 -1.096571,-1.618307 -0.511579,-0.392547 -1.072455,-0.582931 -1.69359,-0.582931 -2.046336,0 -3.946971,1.427924 -5.713955,4.294455 l 0,17.451617 c 0,2.4387 0.231141,3.985341 0.694519,4.639934 0.475435,0.653524 1.327711,1.058906 2.595172,1.224702 l 0,1.249289 -16.88660789,0 0,-1.249289 C 1.5137041,81.659553 2.5127751,81.21888 3.1098051,80.470151 c 0.402043,-0.512342 0.609078,-2.022615 0.609078,-4.532974 l 0,-18.40249 c 0,-2.463299 -0.231142,-3.985341 -0.694528,-4.591799 -0.463377,-0.607536 -1.437258,-1.000075 -2.91175499,-1.190466 l 0,-1.284595 13.59697189,0 z"
          id="path63" inkscape:connector-curvature="0"
          style="clip-rule:evenodd;fill-rule:evenodd;image-rendering:optimizeQuality;shape-rendering:geometricPrecision;text-rendering:geometricPrecision"
          class="fil0"/>
    <path d="m 51.692054,48.516899 c 2.899707,0 5.604417,0.726261 8.102082,2.189479 2.497666,1.46321 4.398311,3.544661 5.68986,6.245405 1.303615,2.687913 1.948847,5.637877 1.948847,8.849884 0,4.628171 -1.19406,8.493713 -3.606284,11.598761 -2.899707,3.771422 -6.908024,5.650719 -12.024968,5.650719 -5.019426,0 -8.894099,-1.725272 -11.598774,-5.162973 -2.716758,-3.4377 -4.069669,-7.423036 -4.069669,-11.94316 0,-4.675234 1.389055,-8.744002 4.15511,-12.217011 2.778104,-3.474069 6.579385,-5.211104 11.403815,-5.211104 z m 0.145701,2.475069 c -1.218165,0 -2.253372,0.439594 -3.118801,1.343417 -0.876373,0.893118 -1.449306,2.65368 -1.717696,5.294538 -0.280438,2.640847 -0.414081,6.304232 -0.414081,10.991194 0,2.486823 0.170891,4.805733 0.499531,6.971667 0.26839,1.653602 0.828171,2.901832 1.681551,3.758581 0.852269,0.868521 1.827235,1.296353 2.923804,1.296353 1.072456,0 1.961981,-0.297352 2.680605,-0.868513 0.92567,-0.796853 1.546796,-1.902832 1.851339,-3.318976 0.475435,-2.200176 0.719728,-6.661483 0.719728,-13.382878 0,-3.948973 -0.232244,-6.661483 -0.682479,-8.136473 -0.45133,-1.474973 -1.121761,-2.545651 -1.998134,-3.223781 -0.621136,-0.487736 -1.426305,-0.725184 -2.425377,-0.725184 z"
          id="path65" inkscape:connector-curvature="0"
          style="clip-rule:evenodd;fill-rule:evenodd;image-rendering:optimizeQuality;shape-rendering:geometricPrecision;text-rendering:geometricPrecision"
          class="fil0"/></svg>