
<!-- Generator: Adobe Illustrator 16.0.0, SVG Export Plug-In . SVG Version:
6.00 Build 0) -->
<svg contentScriptType="text/ecmascript" zoomAndPan="magnify"
     xmlns:rdf="http://www.w3.org/1999/02/22-rdf-syntax-ns#"
     xmlns:xlink="http://www.w3.org/1999/xlink"
     xmlns:svg="http://www.w3.org/2000/svg" contentStyleType="text/css"
     id="Capa_1" sodipodi:docname="Declaration.svg"
     style="enable-background:new 0 0 121.805 121.804;fill:#2068a0;padding: 0px"
     version="1.1" xml:space="preserve" width="16"
     xmlns:sodipodi="http://sodipodi.sourceforge.net/DTD/sodipodi-0.dtd"
     xmlns:inkscape="http://www.inkscape.org/namespaces/inkscape"
     xmlns:dc="http://purl.org/dc/elements/1.1/"
     xmlns:cc="http://creativecommons.org/ns#"
     preserveAspectRatio="xMidYMid meet" inkscape:version="0.91 r13725"
     viewBox="0 0 121.805 121.804" height="16"
     xmlns="http://www.w3.org/2000/svg" x="0px" y="0px">
    <metadata id="metadata43">
        <rdf:RDF>
            <cc:Work rdf:about="">
                <dc:format>image/svg+xml</dc:format><dc:type rdf:resource="http://purl.org/dc/dcmitype/StillImage"/></cc:Work></rdf:RDF></metadata>
    <defs id="defs41"/>
    <sodipodi:namedview objecttolerance="10" bordercolor="#666666"
                        inkscape:window-height="1056" inkscape:zoom="5.4801878"
                        id="namedview39" gridtolerance="10"
                        inkscape:current-layer="Capa_1" inkscape:window-y="24"
                        inkscape:cy="49.518847" inkscape:window-x="0"
                        inkscape:cx="53.712195" showgrid="false"
                        guidetolerance="10" inkscape:pageopacity="0"
                        inkscape:pageshadow="2" inkscape:window-width="1920"
                        inkscape:window-maximized="1" borderopacity="1"
                        pagecolor="#ffffff"/>
    <g id="g3">
        <g id="g5">
            <path sodipodi:nodetypes="sssssscsssssscssscs" id="path7"
                  d="m 66.391,29.233 22.105,0 c 4.037,0 7.309,-3.271 7.309,-7.308 0,-4.037 -3.271,-7.308 -7.309,-7.308 l -22.105,0 C 41.913,14.617 22,32.345 22,54.135 l 0,6.767 0,1.896 c 0,23.23 21.16,44.39 44.391,44.39 l 22.105,0 c 4.037,0 7.309,-3.271 7.309,-7.308 0,-4.037 -3.271,-7.309 -7.309,-7.309 l -22.105,0 C 53.183,92.571 40.198,81.173 37.248,68.21 l 50.016,0 c 4.037,0 7.31,-3.271 7.31,-7.309 0,-4.036 -3.272,-7.308 -7.31,-7.308 l -50.613,0 c 0.366,-15.057 15.594,-24.36 29.74,-24.36 z"
                  inkscape:connector-curvature="0"/></g></g>
    <g id="g9"/>
    <g id="g11"/>
    <g id="g13"/>
    <g id="g15"/>
    <g id="g17"/>
    <g id="g19"/>
    <g id="g21"/>
    <g id="g23"/>
    <g id="g25"/>
    <g id="g27"/>
    <g id="g29"/>
    <g id="g31"/>
    <g id="g33"/>
    <g id="g35"/>
    <g id="g37"/></svg>